<?xml version="1.0" encoding="UTF-8"?>
<!-- Generated by jsxcad -->
<!DOCTYPE svg PUBLIC "-//W3C//DTD SVG 1.1 Tiny//EN" "http://www.w3.org/Graphics/SVG/1.1/DTD/svg11-tiny.dtd">
<svg viewBox="-250 -250 500 500" width="500" height="500" xmlns="http://www.w3.org/2000/svg"><path d="M17.43046984218161,-122.47154430279578L23.831127011782282,-59.102643997299985L22.573433580023373,-110.92867075022653z" style="fill:rgb(247,158,158)"/><path d="M-23.632116033642717,-110.71024148303219L18.411894282110595,-70.74713216843246L17.43046984218161,-122.47154430279578zM18.411894282110595,-70.74713216843246L-23.632116033642717,-110.71024148303219L-24.948531187117368,-58.88241713679348z" style="fill:rgb(83,212,212)"/><path d="M23.831127011782282,-59.102643997299985L17.43046984218161,-122.47154430279578L18.411894282110595,-70.74713216843246z" style="fill:rgb(247,158,158)"/><path d="M-19.137357487866826,-47.4837550069192L18.411894282110595,-70.74713216843246L-24.948531187117368,-58.88241713679348zM18.411894282110595,-70.74713216843246L-19.137357487866826,-47.4837550069192L23.831127011782282,-59.102643997299985z" style="fill:rgb(127,37,217)"/><path d="M-51.682049319606605,-89.89765287194744L72.90378417884185,128.15952199784263L57.382072064043086,-120.78734790028477z" style="fill:rgb(83,212,212)"/><path d="M57.382072064043086,-120.78734790028477L74.0778350855,130.47482899356842L58.33764416210318,-118.4670347025196z" style="fill:rgb(247,158,158)"/><path d="M72.90378417884185,128.15952199784263L-51.682049319606605,-89.89765287194744L-65.19326305283901,158.77909272712327z" style="fill:rgb(83,212,212)"/><path d="M74.0778350855,130.47482899356842L57.382072064043086,-120.78734790028477L72.90378417884185,128.15952199784263z" style="fill:rgb(247,158,158)"/><path d="M-63.72012642971171,160.9419506861919L72.90378417884185,128.15952199784263L-65.19326305283901,158.77909272712327zM72.90378417884185,128.15952199784263L-63.72012642971171,160.9419506861919L74.0778350855,130.47482899356842z" style="fill:rgb(127,37,217)"/></svg>
