<?xml version="1.0" encoding="UTF-8"?>
<!-- Generated by jsxcad -->
<!DOCTYPE svg PUBLIC "-//W3C//DTD SVG 1.1 Tiny//EN" "http://www.w3.org/Graphics/SVG/1.1/DTD/svg11-tiny.dtd">
<svg viewBox="-250 -250 500 500" width="500" height="500" xmlns="http://www.w3.org/2000/svg"><path d="M-19.37540172490254,-110.52430405537505L14.91523210017112,-78.14061314019543L14.264595018293587,-120.14786268943774z" style="fill:rgb(83,212,212)"/><path d="M14.91523210017112,-78.14061314019543L18.506781595188325,-110.70335392841413L14.264595018293587,-120.14786268943774z" style="fill:rgb(247,158,158)"/><path d="M14.91523210017112,-78.14061314019543L-19.37540172490254,-110.52430405537505L-20.25150077430267,-68.44563017712957z" style="fill:rgb(83,212,212)"/><path d="M18.506781595188325,-110.70335392841413L14.91523210017112,-78.14061314019543L19.34374021347512,-68.62594737519609z" style="fill:rgb(247,158,158)"/><path d="M-15.564743972996057,-59.09433333900863L14.91523210017112,-78.14061314019543L-20.25150077430267,-68.44563017712957zM14.91523210017112,-78.14061314019543L-15.564743972996057,-59.09433333900863L19.34374021347512,-68.62594737519609z" style="fill:rgb(127,37,217)"/><path d="M-42.511176224120845,-93.40762415620205L56.886510788885424,75.90560702924546L46.97218146249253,-118.77195581275855z" style="fill:rgb(83,212,212)"/><path d="M46.97218146249253,-118.77195581275855L57.83482748765126,77.81665206436975L47.771700353611585,-116.87518556288114z" style="fill:rgb(247,158,158)"/><path d="M56.886510788885424,75.90560702924546L-42.511176224120845,-93.40762415620205L-51.247476122015144,101.35223486387076z" style="fill:rgb(83,212,212)"/><path d="M57.83482748765126,77.81665206436975L46.97218146249253,-118.77195581275855L56.886510788885424,75.90560702924546z" style="fill:rgb(247,158,158)"/><path d="M-2.857510173315658,38.486726860728595L4.91283614663346,45.02842204875864L4.874571427869161,36.568741621338624z" style="fill:rgb(83,212,212)"/><path d="M4.91283614663346,45.02842204875864L5.869357504281888,38.450817444652614L4.874571427869161,36.568741621338624z" style="fill:rgb(247,158,158)"/><path d="M4.91283614663346,45.02842204875864L-2.857510173315658,38.486726860728595L-2.879898084080475,46.94516223951027z" style="fill:rgb(83,212,212)"/><path d="M5.869357504281888,38.450817444652614L4.91283614663346,45.02842204875864L5.915344195840748,46.90927678589611z" style="fill:rgb(247,158,158)"/><path d="M-1.8646345203458041,48.81879522283761L4.91283614663346,45.02842204875864L-2.879898084080475,46.94516223951027zM4.91283614663346,45.02842204875864L-1.8646345203458041,48.81879522283761L5.915344195840748,46.90927678589611z" style="fill:rgb(127,37,217)"/><path d="M-2.9156272667860375,60.44410147337711L5.013752181327821,67.33925915444037L4.973905705321445,58.52987033537223z" style="fill:rgb(83,212,212)"/><path d="M5.013752181327821,67.33925915444037L5.988735034077674,60.40826107078966L4.973905705321445,58.52987033537223z" style="fill:rgb(247,158,158)"/><path d="M5.013752181327821,67.33925915444037L-2.9156272667860375,60.44410147337711L-2.938938828161657,69.25149798137325z" style="fill:rgb(83,212,212)"/><path d="M5.988735034077674,60.40826107078966L5.013752181327821,67.33925915444037L6.036619003805939,69.21570070409061z" style="fill:rgb(247,158,158)"/><path d="M-1.9027878762179573,71.12058731841724L5.013752181327821,67.33925915444037L-2.938938828161657,69.25149798137325zM5.013752181327821,67.33925915444037L-1.9027878762179573,71.12058731841724L6.036619003805939,69.21570070409061zM-50.115731368021024,103.163980188777L56.886510788885424,75.90560702924546L-51.247476122015144,101.35223486387076z" style="fill:rgb(127,37,217)"/><path d="M-2.976157452277394,83.31316992510034L5.118901071368929,90.58590345927826L5.077372663249381,81.40466772787515z" style="fill:rgb(83,212,212)"/><path d="M5.118901071368929,90.58590345927826L6.11306943171535,83.27743820655732L5.077372663249381,81.40466772787515z" style="fill:rgb(247,158,158)"/><path d="M5.118901071368929,90.58590345927826L-2.976157452277394,83.31316992510034L-3.0004510176912866,92.49157983896802z" style="fill:rgb(83,212,212)"/><path d="M6.11306943171535,83.27743820655732L5.118901071368929,90.58590345927826L6.162970599242628,92.45590685229196z" style="fill:rgb(247,158,158)"/><path d="M56.886510788885424,75.90560702924546L-50.115731368021024,103.163980188777L57.83482748765126,77.81665206436975zM-1.9425351971363771,94.35410319466466L5.118901071368929,90.58590345927826L-3.0004510176912866,92.49157983896802zM5.118901071368929,90.58590345927826L-1.9425351971363771,94.35410319466466L6.162970599242628,92.45590685229196z" style="fill:rgb(127,37,217)"/><path d="M-3.0392541904566173,107.15191439263754L5.228554822941255,114.8284905749839L5.185235668260677,105.25135690470744z" style="fill:rgb(83,212,212)"/><path d="M5.228554822941255,114.8284905749839L6.2426759581556235,107.11633289241584L5.185235668260677,105.25135690470744z" style="fill:rgb(247,158,158)"/><path d="M5.228554822941255,114.8284905749839L-3.0392541904566173,107.15191439263754L-3.0645931432812605,116.72529074920766z" style="fill:rgb(83,212,212)"/><path d="M6.2426759581556235,107.11633289241584L5.228554822941255,114.8284905749839L6.294724564675661,116.68978018288561z" style="fill:rgb(247,158,158)"/><path d="M-1.9839784971157062,118.5789763163816L5.228554822941255,114.8284905749839L-3.0645931432812605,116.72529074920766zM5.228554822941255,114.8284905749839L-1.9839784971157062,118.5789763163816L6.294724564675661,116.68978018288561z" style="fill:rgb(127,37,217)"/><path d="M-3.1315375894131954,142.01774787000252L5.2977810285623494,130.13323577622202L-3.105084290679002,132.0233575568828z" style="fill:rgb(83,212,212)"/><path d="M5.343009273889817,140.13243715416183L6.377897281059971,131.98797295974427L5.2977810285623494,130.13323577622202zM6.377897281059971,131.98797295974427L5.343009273889817,140.13243715416183L6.432234949906798,141.9824539530411z" style="fill:rgb(247,158,158)"/><path d="M5.2977810285623494,130.13323577622202L-3.1315375894131954,142.01774787000252L5.343009273889817,140.13243715416183z" style="fill:rgb(83,212,212)"/><path d="M-2.0272287149465273,143.8600419227259L5.343009273889817,140.13243715416183L-3.1315375894131954,142.01774787000252zM5.343009273889817,140.13243715416183L-2.0272287149465273,143.8600419227259L6.432234949906798,141.9824539530411z" style="fill:rgb(127,37,217)"/></svg>
