<?xml version="1.0" encoding="UTF-8"?>
<!-- Generated by jsxcad -->
<!DOCTYPE svg PUBLIC "-//W3C//DTD SVG 1.1 Tiny//EN" "http://www.w3.org/Graphics/SVG/1.1/DTD/svg11-tiny.dtd">
<svg viewBox="-250 -250 500 500" width="500" height="500" xmlns="http://www.w3.org/2000/svg"><path d="M-18.682087067187087,-100.51949967806613L23.96255964316971,-32.118149110644005L22.063732062605187,-112.07265259404008zM23.96255964316971,-32.118149110644005L-18.682087067187087,-100.51949967806613L-20.272414531663575,-20.45042900773113zM-52.25480535987208,-91.00023633448356L-23.62411693386993,148.2995659691316L-18.682087067187087,-100.51949967806613z" style="fill:rgb(83,212,212)"/><path d="M-19.088459796364983,-18.190362941153083L23.96255964316971,-32.118149110644005L-20.272414531663575,-20.45042900773113zM23.96255964316971,-32.118149110644005L-19.088459796364983,-18.190362941153083L25.064323162306582,-29.80820118468991z" style="fill:rgb(127,37,217)"/><path d="M-21.492102585731498,40.957868162437826L-19.088459796364983,-18.190362941153083L-20.272414531663575,-20.45042900773113z" style="fill:rgb(247,158,158)"/><path d="M22.063732062605187,-112.07265259404008L72.31452626867664,126.99744322283662L56.90285734122094,-121.95099561010551z" style="fill:rgb(83,212,212)"/><path d="M56.90285734122094,-121.95099561010551L73.4915551359368,129.3186379770268L57.86033581796745,-119.62603880823478z" style="fill:rgb(247,158,158)"/><path d="M-25.05916989126966,-29.587931412245148L20.70589524216311,19.948787853291226L19.507579782813014,-41.45841819309561z" style="fill:rgb(83,212,212)"/><path d="M20.70589524216311,19.948787853291226L25.064323162306582,-29.80820118468991L19.507579782813014,-41.45841819309561zM-19.088459796364983,-18.190362941153083L-21.492102585731498,40.957868162437826L-20.234324539431125,43.21507442848955z" style="fill:rgb(247,158,158)"/><path d="M20.70589524216311,19.948787853291226L-25.05916989126966,-29.587931412245148L-26.58061269026493,31.826040603769304z" style="fill:rgb(83,212,212)"/><path d="M25.064323162306582,-29.80820118468991L20.70589524216311,19.948787853291226L26.5864107811807,31.605790824691574z" style="fill:rgb(247,158,158)"/><path d="M-20.234324539431125,43.21507442848955L20.70589524216311,19.948787853291226L-26.58061269026493,31.826040603769304zM20.70589524216311,19.948787853291226L-20.234324539431125,43.21507442848955L26.5864107811807,31.605790824691574z" style="fill:rgb(127,37,217)"/><path d="M-23.62411693386993,148.2995659691316L-52.25480535987208,-91.00023633448356L-65.93255205236038,157.693681984224zM72.31452626867664,126.99744322283662L22.063732062605187,-112.07265259404008L27.975181870849468,136.84250059044547zM-21.492102585731498,40.957868162437826L27.975181870849468,136.84250059044547L25.421068709142585,29.295721258206463z" style="fill:rgb(83,212,212)"/><path d="M73.4915551359368,129.3186379770268L56.90285734122094,-121.95099561010551L72.31452626867664,126.99744322283662z" style="fill:rgb(247,158,158)"/><path d="M27.975181870849468,136.84250059044547L-21.492102585731498,40.957868162437826L-23.62411693386993,148.2995659691316z" style="fill:rgb(83,212,212)"/><path d="M-64.4557949590647,159.86185548329496L-23.62411693386993,148.2995659691316L-65.93255205236038,157.693681984224zM-23.62411693386993,148.2995659691316L-64.4557949590647,159.86185548329496L-22.23659116502865,150.51401664856385zM-22.23659116502865,150.51401664856385L27.975181870849468,136.84250059044547L-23.62411693386993,148.2995659691316zM27.975181870849468,136.84250059044547L-22.23659116502865,150.51401664856385L29.250901538824134,139.11405067940072zM29.250901538824134,139.11405067940072L72.31452626867664,126.99744322283662L27.975181870849468,136.84250059044547zM72.31452626867664,126.99744322283662L29.250901538824134,139.11405067940072L73.4915551359368,129.3186379770268z" style="fill:rgb(127,37,217)"/></svg>
