solid JSxCAD
facet normal 0 0 1
outer loop
vertex 100 37.5 2
vertex -100 37.5 2
vertex -100 -37.5 2
endloop
endfacet
facet normal 0 0 1
outer loop
vertex 100 37.5 2
vertex -100 -37.5 2
vertex 100 -37.5 2
endloop
endfacet
facet normal 0 0 -1
outer loop
vertex 100 -37.5 0
vertex -100 -37.5 0
vertex -100 37.5 0
endloop
endfacet
facet normal 0 0 -1
outer loop
vertex 100 -37.5 0
vertex -100 37.5 0
vertex 100 37.5 0
endloop
endfacet
facet normal 0 -1 0
outer loop
vertex 100 -37.5 0
vertex 100 -37.5 2
vertex -100 -37.5 2
endloop
endfacet
facet normal 0 -1 0
outer loop
vertex 100 -37.5 0
vertex -100 -37.5 2
vertex -100 -37.5 0
endloop
endfacet
facet normal -1 0 0
outer loop
vertex -100 -37.5 0
vertex -100 -37.5 2
vertex -100 37.5 2
endloop
endfacet
facet normal -1 0 0
outer loop
vertex -100 -37.5 0
vertex -100 37.5 2
vertex -100 37.5 0
endloop
endfacet
facet normal 0 1 0
outer loop
vertex -100 37.5 0
vertex -100 37.5 2
vertex 100 37.5 2
endloop
endfacet
facet normal 0 1 0
outer loop
vertex -100 37.5 0
vertex 100 37.5 2
vertex 100 37.5 0
endloop
endfacet
facet normal 1 0 0
outer loop
vertex 100 37.5 0
vertex 100 37.5 2
vertex 100 -37.5 2
endloop
endfacet
facet normal 1 0 0
outer loop
vertex 100 37.5 0
vertex 100 -37.5 2
vertex 100 -37.5 0
endloop
endfacet
endsolid JSxCAD
