<?xml version="1.0" encoding="UTF-8"?>
<!-- Generated by jsxcad -->
<!DOCTYPE svg PUBLIC "-//W3C//DTD SVG 1.1 Tiny//EN" "http://www.w3.org/Graphics/SVG/1.1/DTD/svg11-tiny.dtd">
<svg viewBox="-250 -250 500 500" width="500" height="500" xmlns="http://www.w3.org/2000/svg"><path d="M-19.288346466445095,-110.52050094336494L14.844591952701068,-78.28997697356334L14.199970072418516,-120.10042896114359z" style="fill:rgb(83,212,212)"/><path d="M14.844591952701068,-78.28997697356334L18.42361625246648,-110.69874561785409L14.199970072418516,-120.10042896114359z" style="fill:rgb(247,158,158)"/><path d="M14.844591952701068,-78.28997697356334L-19.288346466445095,-110.52050094336494L-20.15641407343194,-68.63922754968432z" style="fill:rgb(83,212,212)"/><path d="M18.42361625246648,-110.69874561785409L14.844591952701068,-78.28997697356334L19.252901027868784,-68.8187292714383z" style="fill:rgb(247,158,158)"/><path d="M-15.492275784636442,-59.32984617684525L14.844591952701068,-78.28997697356334L-20.15641407343194,-68.63922754968432zM14.844591952701068,-78.28997697356334L-15.492275784636442,-59.32984617684525L19.252901027868784,-68.8187292714383z" style="fill:rgb(127,37,217)"/><path d="M-42.322995354034,-93.47964635529883L56.575058406787655,74.88954163573732L46.759627540691476,-118.73080413006937z" style="fill:rgb(83,212,212)"/><path d="M46.759627540691476,-118.73080413006937L57.51880633004874,76.79214421266491L47.55588031033089,-116.84266995934094z" style="fill:rgb(247,158,158)"/><path d="M56.575058406787655,74.88954163573732L-42.322995354034,-93.47964635529883L-50.974251838313066,100.22713461110362z" style="fill:rgb(83,212,212)"/><path d="M57.51880633004874,76.79214421266491L46.759627540691476,-118.73080413006937L56.575058406787655,74.88954163573732zM7.870591955317891,33.88320239520007L8.942952786264026,46.54061869276115L8.854311395003558,35.75990005292466z" style="fill:rgb(247,158,158)"/><path d="M-5.85024369456685,37.293308229383L7.949533730493514,44.665415596048284L7.870591955317891,33.88320239520007zM7.949533730493514,44.665415596048284L-5.85024369456685,37.293308229383L-5.908720880842691,48.072750882917475z" style="fill:rgb(83,212,212)"/><path d="M8.942952786264026,46.54061869276115L7.870591955317891,33.88320239520007L7.949533730493514,44.665415596048284z" style="fill:rgb(247,158,158)"/><path d="M-4.892710915414057,49.93516894818516L7.949533730493514,44.665415596048284L-5.908720880842691,48.072750882917475zM7.949533730493514,44.665415596048284L-4.892710915414057,49.93516894818516L8.942952786264026,46.54061869276115z" style="fill:rgb(127,37,217)"/><path d="M-5.968378925629087,59.06986811019867L8.1122652082573,66.89199889307103L8.030075094522779,55.66611333483606z" style="fill:rgb(83,212,212)"/><path d="M8.1122652082573,66.89199889307103L9.033386895769233,57.53937649217466L8.030075094522779,55.66611333483606z" style="fill:rgb(247,158,158)"/><path d="M8.1122652082573,66.89199889307103L-5.968378925629087,59.06986811019867L-6.029253929063565,70.29131732562243z" style="fill:rgb(83,212,212)"/><path d="M9.033386895769233,57.53937649217466L8.1122652082573,66.89199889307103L9.125668714326006,68.76285022638965z" style="fill:rgb(247,158,158)"/><path d="M-4.992327266228451,72.14915367961841L8.1122652082573,66.89199889307103L-6.029253929063565,70.29131732562243zM8.1122652082573,66.89199889307103L-4.992327266228451,72.14915367961841L9.125668714326006,68.76285022638965zM-49.849053086202176,102.03139573919874L56.575058406787655,74.88954163573732L-50.974251838313066,100.22713461110362z" style="fill:rgb(127,37,217)"/><path d="M-6.091383528717349,81.74403367807246L8.281798354757559,90.04757825005638L8.196155199333285,78.35006114058427z" style="fill:rgb(83,212,212)"/><path d="M8.281798354757559,90.04757825005638L9.219855428074728,80.21800059515333L8.196155199333285,78.35006114058427z" style="fill:rgb(247,158,158)"/><path d="M8.281798354757559,90.04757825005638L-6.091383528717349,81.74403367807246L-6.1548069130955785,93.43524101634594z" style="fill:rgb(83,212,212)"/><path d="M56.575058406787655,74.88954163573732L-49.849053086202176,102.03139573919874L57.51880633004874,76.79214421266491z" style="fill:rgb(127,37,217)"/><path d="M9.219855428074728,80.21800059515333L8.281798354757559,90.04757825005638L9.3160066338185,91.91207586431814z" style="fill:rgb(247,158,158)"/><path d="M-5.096084331237332,95.28649849342338L8.281798354757559,90.04757825005638L-6.1548069130955785,93.43524101634594zM8.281798354757559,90.04757825005638L-5.096084331237332,95.28649849342338L9.3160066338185,91.91207586431814z" style="fill:rgb(127,37,217)"/><path d="M-6.2857000881430185,117.56355965520645L8.369250212274126,101.99212987882837L-6.219564919996079,105.37246721310748z" style="fill:rgb(83,212,212)"/><path d="M8.458568680485183,114.19163723576658L9.414184440626109,103.85262392668508L8.369250212274126,101.99212987882837zM9.414184440626109,103.85262392668508L8.458568680485183,114.19163723576658L9.51445360364257,116.04753218975571z" style="fill:rgb(247,158,158)"/><path d="M8.369250212274126,101.99212987882837L-6.2857000881430185,117.56355965520645L8.458568680485183,114.19163723576658z" style="fill:rgb(83,212,212)"/><path d="M-5.204245733415051,119.40599605204181L8.458568680485183,114.19163723576658L-6.2857000881430185,117.56355965520645zM8.458568680485183,114.19163723576658L-5.204245733415051,119.40599605204181L9.51445360364257,116.04753218975571z" style="fill:rgb(127,37,217)"/><path d="M-6.422281637023093,142.74044402402924L8.54981416669836,126.65434514646121L-6.35325689396798,130.01670506561248z" style="fill:rgb(83,212,212)"/><path d="M8.643049713187917,139.38886420068198L9.61688166648845,128.50500956756588L8.54981416669836,126.65434514646121zM9.61688166648845,128.50500956756588L8.643049713187917,139.38886420068198L9.72153911301224,141.23362842713783z" style="fill:rgb(247,158,158)"/><path d="M8.54981416669836,126.65434514646121L-6.422281637023093,142.74044402402924L8.643049713187917,139.38886420068198z" style="fill:rgb(83,212,212)"/><path d="M-5.317098052691544,144.5715405605051L8.643049713187917,139.38886420068198L-6.422281637023093,142.74044402402924zM8.643049713187917,139.38886420068198L-5.317098052691544,144.5715405605051L9.72153911301224,141.23362842713783z" style="fill:rgb(127,37,217)"/></svg>
