<?xml version="1.0" encoding="UTF-8"?>
<!-- Generated by jsxcad -->
<!DOCTYPE svg PUBLIC "-//W3C//DTD SVG 1.1 Tiny//EN" "http://www.w3.org/Graphics/SVG/1.1/DTD/svg11-tiny.dtd">
<svg viewBox="-250 -250 500 500" width="500" height="500" xmlns="http://www.w3.org/2000/svg"><path d="M-19.37540172490254,-110.52430405537505L14.91523210017112,-78.14061314019543L14.264595018293587,-120.14786268943774z" style="fill:rgb(83,212,212)"/><path d="M14.91523210017112,-78.14061314019543L18.506781595188325,-110.70335392841413L14.264595018293587,-120.14786268943774z" style="fill:rgb(247,158,158)"/><path d="M-42.511176224120845,-93.40762415620205L51.303825408918144,-33.715885991805166L46.97218146249253,-118.77195581275855zM14.91523210017112,-78.14061314019543L-19.37540172490254,-110.52430405537505L-20.25150077430267,-68.44563017712957z" style="fill:rgb(83,212,212)"/><path d="M18.506781595188325,-110.70335392841413L14.91523210017112,-78.14061314019543L19.34374021347512,-68.62594737519609zM46.97218146249253,-118.77195581275855L52.16920925120476,-31.79635492845923L47.771700353611585,-116.87518556288114z" style="fill:rgb(247,158,158)"/><path d="M-15.564743972996057,-59.09433333900863L14.91523210017112,-78.14061314019543L-20.25150077430267,-68.44563017712957zM14.91523210017112,-78.14061314019543L-15.564743972996057,-59.09433333900863L19.34374021347512,-68.62594737519609z" style="fill:rgb(127,37,217)"/><path d="M-34.206095641947854,-45.643362305378076L-31.625644541380378,-33.560644402768105L-31.413496876577177,-40.3194158391895z" style="fill:rgb(247,158,158)"/><path d="M51.303825408918144,-33.715885991805166L-42.511176224120845,-93.40762415620205L-46.33802720238891,-8.094970374165683zM-43.226729974516196,-36.52055653595397L-34.206095641947854,-45.643362305378076L-42.9359684352683,-43.27790137075949z" style="fill:rgb(83,212,212)"/><path d="M-21.668605654984674,-49.04054614211393L-19.057144191676244,-36.926214041973566L-18.928909749943234,-43.68335482103005z" style="fill:rgb(247,158,158)"/><path d="M-34.438247185339506,-38.88723691214359L-40.3770217929153,-31.21721462362892L-31.625644541380378,-33.560644402768105z" style="fill:rgb(127,37,217)"/><path d="M-31.625644541380378,-33.560644402768105L-34.206095641947854,-45.643362305378076L-34.438247185339506,-38.88723691214359z" style="fill:rgb(247,158,158)"/><path d="M-40.3770217929153,-31.21721462362892L-34.438247185339506,-38.88723691214359L-43.226729974516196,-36.52055653595397z" style="fill:rgb(127,37,217)"/><path d="M-34.206095641947854,-45.643362305378076L-43.226729974516196,-36.52055653595397L-34.438247185339506,-38.88723691214359zM-30.659934067378938,-39.904712981328124L-21.668605654984674,-49.04054614211393L-30.453059169210213,-46.66029522016271z" style="fill:rgb(83,212,212)"/><path d="M-21.81612983291342,-42.28629175609957L-27.863340556272526,-34.568107804736776L-19.057144191676244,-36.926214041973566z" style="fill:rgb(127,37,217)"/><path d="M-19.057144191676244,-36.926214041973566L-21.668605654984674,-49.04054614211393L-21.81612983291342,-42.28629175609957z" style="fill:rgb(247,158,158)"/><path d="M-27.863340556272526,-34.568107804736776L-21.81612983291342,-42.28629175609957L-30.659934067378938,-39.904712981328124z" style="fill:rgb(127,37,217)"/><path d="M-9.114339557070343,-45.70680106644526L-6.366440636986715,-47.06827633625241L-9.052513735849448,-52.45902199985865z" style="fill:rgb(247,158,158)"/><path d="M-21.668605654984674,-49.04054614211393L-30.659934067378938,-39.904712981328124L-21.81612983291342,-42.28629175609957zM-18.013991820135626,-43.31018278182905L-9.052513735849448,-52.45902199985865L-17.892064012048,-50.0638419682305z" style="fill:rgb(83,212,212)"/><path d="M-6.366440636986715,-47.06827633625241L-9.114339557070343,-45.70680106644526L-6.409705712543316,-40.31292179533011zM3.642917885848113,-55.89900156719408L6.317417684892235,-43.720967046575005L6.274642125088489,-50.474384800598436z" style="fill:rgb(247,158,158)"/><path d="M-9.114339557070343,-45.70680106644526L-15.27123534710307,-37.93999817498473L-6.409705712543316,-40.31292179533011zM-15.27123534710307,-37.93999817498473L-9.114339557070343,-45.70680106644526L-18.013991820135626,-43.31018278182905z" style="fill:rgb(127,37,217)"/><path d="M-9.052513735849448,-52.45902199985865L-18.013991820135626,-43.31018278182905L-9.114339557070343,-45.70680106644526zM-5.252249181245691,-53.48875150549027L3.667876638387289,-49.14897165656801L3.642917885848113,-55.89900156719408z" style="fill:rgb(83,212,212)"/><path d="M16.418441650175428,-59.360677431023426L19.124980804616495,-47.15054991037917L18.99507812620884,-53.90187504086797z" style="fill:rgb(247,158,158)"/><path d="M3.667876638387289,-49.14897165656801L-2.599969653047785,-41.33308595566075L6.317417684892235,-43.720967046575005z" style="fill:rgb(127,37,217)"/><path d="M6.317417684892235,-43.720967046575005L3.642917885848113,-55.89900156719408L3.667876638387289,-49.14897165656801z" style="fill:rgb(247,158,158)"/><path d="M3.667876638387289,-49.14897165656801L-5.252249181245691,-53.48875150549027L-5.288154385882766,-46.73717093241389z" style="fill:rgb(83,212,212)"/><path d="M-2.599969653047785,-41.33308595566075L3.667876638387289,-49.14897165656801L-5.288154385882766,-46.73717093241389z" style="fill:rgb(127,37,217)"/><path d="M7.467130637072962,-56.93521468780305L16.53128675625194,-52.61300174666106L16.418441650175428,-59.360677431023426z" style="fill:rgb(83,212,212)"/><path d="M52.16920925120476,-31.79635492845923L46.97218146249253,-118.77195581275855L51.303825408918144,-33.715885991805166z" style="fill:rgb(247,158,158)"/><path d="M16.53128675625194,-52.61300174666106L10.151205909415163,-44.747569470885686L19.124980804616495,-47.15054991037917z" style="fill:rgb(127,37,217)"/><path d="M19.124980804616495,-47.15054991037917L16.418441650175428,-59.360677431023426L16.53128675625194,-52.61300174666106z" style="fill:rgb(247,158,158)"/><path d="M16.53128675625194,-52.61300174666106L7.467130637072962,-56.93521468780305L7.518338904907889,-50.18587387271303z" style="fill:rgb(83,212,212)"/><path d="M10.151205909415163,-44.747569470885686L16.53128675625194,-52.61300174666106L7.518338904907889,-50.18587387271303z" style="fill:rgb(127,37,217)"/><path d="M-35.00978621924505,-22.25418457088316L-32.66299426619703,-0.5118928685741286L-32.14787495678112,-16.92299012518146z" style="fill:rgb(247,158,158)"/><path d="M-2.495838481995481,-13.59976511681626L-46.33802720238891,-8.094970374165683L-46.60736947096143,-2.0904768275795615zM-43.94252566488662,-19.88535112398515L-35.57363409556689,-5.844958086672808L-35.00978621924505,-22.25418457088316zM-46.33802720238891,-8.094970374165683L-2.495838481995481,-13.59976511681626L-2.48125699547122,-19.60284893627921z" style="fill:rgb(83,212,212)"/><path d="M-1.5324576490169144,-17.733332471559283L6.279208538774375,-21.901568532628996L-2.48125699547122,-19.60284893627921zM6.279208538774375,-21.901568532628996L-1.5324576490169144,-17.733332471559283L7.214592330337436,-20.023950664707886z" style="fill:rgb(127,37,217)"/><path d="M-2.495838481995481,-13.59976511681626L-1.5324576490169144,-17.733332471559283L-2.48125699547122,-19.60284893627921zM-32.66299426619703,-0.5118928685741286L-35.00978621924505,-22.25418457088316L-35.57363409556689,-5.844958086672808z" style="fill:rgb(247,158,158)"/><path d="M-35.57363409556689,-5.844958086672808L-43.94252566488662,-19.88535112398515L-44.64863795223058,-3.4751879352974746z" style="fill:rgb(83,212,212)"/><path d="M-9.416787811526333,-12.675338982770095L-6.51622422549542,-23.681246079988284L-9.266572341054577,-29.080912278384904zM-1.5324576490169144,-17.733332471559283L-2.495838481995481,-13.59976511681626L-1.5414474154606164,-11.729919967354235zM6.101111447502947,-22.259066820034253L7.257006928926884,-14.020944946157261L7.214592330337436,-20.023950664707886z" style="fill:rgb(247,158,158)"/><path d="M-18.314197274893143,-26.681613478801435L-9.416787811526333,-12.675338982770095L-9.266572341054577,-29.080912278384904zM-2.661907488211776,-19.95880304629962L6.137055840952914,-16.25651529784083L6.101111447502947,-22.259066820034253z" style="fill:rgb(83,212,212)"/><path d="M-35.57363409556689,-5.844958086672808L-41.69844326652602,1.8338328468859646L-32.66299426619703,-0.5118928685741286z" style="fill:rgb(127,37,217)"/><path d="M6.137055840952914,-16.25651529784083L-2.661907488211776,-19.95880304629962L-2.677555880082545,-13.95578624502184z" style="fill:rgb(83,212,212)"/><path d="M-41.69844326652602,1.8338328468859646L-35.57363409556689,-5.844958086672808L-44.64863795223058,-3.4751879352974746z" style="fill:rgb(127,37,217)"/><path d="M7.257006928926884,-14.020944946157261L6.101111447502947,-22.259066820034253L6.137055840952914,-16.25651529784083z" style="fill:rgb(247,158,158)"/><path d="M-1.5414474154606164,-11.729919967354235L6.137055840952914,-16.25651529784083L-2.677555880082545,-13.95578624502184zM6.137055840952914,-16.25651529784083L-1.5414474154606164,-11.729919967354235L7.257006928926884,-14.020944946157261z" style="fill:rgb(127,37,217)"/><path d="M-6.51622422549542,-23.681246079988284L-9.416787811526333,-12.675338982770095L-6.6213139143967314,-7.272668487044365z" style="fill:rgb(247,158,158)"/><path d="M-9.416787811526333,-12.675338982770095L-18.314197274893143,-26.681613478801435L-18.610402864968965,-10.274595313275983z" style="fill:rgb(83,212,212)"/><path d="M17.083458261016464,-19.59539341454921L19.444848130192906,-30.526363648432095L16.809184865957878,-35.99582531168885z" style="fill:rgb(247,158,158)"/><path d="M51.60935399808029,-27.716534530243454L6.279208538774375,-21.901568532628996L6.316189685052852,-15.898940666234251zM7.644440383318898,-33.565468281642254L17.083458261016464,-19.59539341454921L16.809184865957878,-35.99582531168885z" style="fill:rgb(83,212,212)"/><path d="M-9.416787811526333,-12.675338982770095L-15.77425329767856,-4.896440654131955L-6.6213139143967314,-7.272668487044365z" style="fill:rgb(127,37,217)"/><path d="M6.279208538774375,-21.901568532628996L51.60935399808029,-27.716534530243454L51.303825408918144,-33.715885991805166z" style="fill:rgb(83,212,212)"/><path d="M-15.77425329767856,-4.896440654131955L-9.416787811526333,-12.675338982770095L-18.610402864968965,-10.274595313275983z" style="fill:rgb(127,37,217)"/><path d="M19.444848130192906,-30.526363648432095L17.083458261016464,-19.59539341454921L19.760490662632115,-14.12174498327671zM51.303825408918144,-33.715885991805166L52.479333516677585,-25.796366341018L52.16920925120476,-31.79635492845923z" style="fill:rgb(247,158,158)"/><path d="M17.083458261016464,-19.59539341454921L7.644440383318898,-33.565468281642254L7.7688878536280255,-17.163063312531758z" style="fill:rgb(83,212,212)"/><path d="M43.93390985930531,-26.60689625735364L45.741729751012286,-37.460021593640626L43.22396953140323,-43.00064355579939zM52.479333516677585,-25.796366341018L51.303825408918144,-33.715885991805166L51.60935399808029,-27.716534530243454z" style="fill:rgb(247,158,158)"/><path d="M33.93981785494121,-40.53862125352994L43.93390985930531,-26.60689625735364L43.22396953140323,-43.00064355579939z" style="fill:rgb(83,212,212)"/><path d="M17.083458261016464,-19.59539341454921L10.487754223715228,-11.714416546929767L19.760490662632115,-14.12174498327671zM10.487754223715228,-11.714416546929767L17.083458261016464,-19.59539341454921L7.7688878536280255,-17.163063312531758z" style="fill:rgb(127,37,217)"/><path d="M45.741729751012286,-37.460021593640626L43.93390985930531,-26.60689625735364L46.48912261287137,-21.060862624641263z" style="fill:rgb(247,158,158)"/><path d="M43.93390985930531,-26.60689625735364L33.93981785494121,-40.53862125352994L34.49598267441413,-24.142354969874333z" style="fill:rgb(83,212,212)"/><path d="M43.93390985930531,-26.60689625735364L37.094224431080406,-18.621818636650016L46.48912261287137,-21.060862624641263zM37.094224431080406,-18.621818636650016L43.93390985930531,-26.60689625735364L34.49598267441413,-24.142354969874333z" style="fill:rgb(127,37,217)"/><path d="M-46.60736947096143,-2.0904768275795615L56.886510788885424,75.90560702924546L51.60935399808029,-27.716534530243454z" style="fill:rgb(83,212,212)"/><path d="M51.60935399808029,-27.716534530243454L57.83482748765126,77.81665206436975L52.479333516677585,-25.796366341018z" style="fill:rgb(247,158,158)"/><path d="M-2.857510173315658,38.486726860728595L4.91283614663346,45.02842204875864L4.874571427869161,36.568741621338624z" style="fill:rgb(83,212,212)"/><path d="M4.91283614663346,45.02842204875864L5.869357504281888,38.450817444652614L4.874571427869161,36.568741621338624z" style="fill:rgb(247,158,158)"/><path d="M4.91283614663346,45.02842204875864L-2.857510173315658,38.486726860728595L-2.879898084080475,46.94516223951027z" style="fill:rgb(83,212,212)"/><path d="M5.869357504281888,38.450817444652614L4.91283614663346,45.02842204875864L5.915344195840748,46.90927678589611z" style="fill:rgb(247,158,158)"/><path d="M-1.8646345203458041,48.81879522283761L4.91283614663346,45.02842204875864L-2.879898084080475,46.94516223951027zM4.91283614663346,45.02842204875864L-1.8646345203458041,48.81879522283761L5.915344195840748,46.90927678589611z" style="fill:rgb(127,37,217)"/><path d="M56.886510788885424,75.90560702924546L-46.60736947096143,-2.0904768275795615L-51.247476122015144,101.35223486387076zM-2.9156272667860375,60.44410147337711L5.013752181327821,67.33925915444037L4.973905705321445,58.52987033537223z" style="fill:rgb(83,212,212)"/><path d="M5.013752181327821,67.33925915444037L5.988735034077674,60.40826107078966L4.973905705321445,58.52987033537223zM57.83482748765126,77.81665206436975L51.60935399808029,-27.716534530243454L56.886510788885424,75.90560702924546z" style="fill:rgb(247,158,158)"/><path d="M5.013752181327821,67.33925915444037L-2.9156272667860375,60.44410147337711L-2.938938828161657,69.25149798137325z" style="fill:rgb(83,212,212)"/><path d="M5.988735034077674,60.40826107078966L5.013752181327821,67.33925915444037L6.036619003805939,69.21570070409061z" style="fill:rgb(247,158,158)"/><path d="M-1.9027878762179573,71.12058731841724L5.013752181327821,67.33925915444037L-2.938938828161657,69.25149798137325zM5.013752181327821,67.33925915444037L-1.9027878762179573,71.12058731841724L6.036619003805939,69.21570070409061zM-50.115731368021024,103.163980188777L56.886510788885424,75.90560702924546L-51.247476122015144,101.35223486387076z" style="fill:rgb(127,37,217)"/><path d="M-2.976157452277394,83.31316992510034L5.118901071368929,90.58590345927826L5.077372663249381,81.40466772787515z" style="fill:rgb(83,212,212)"/><path d="M5.118901071368929,90.58590345927826L6.11306943171535,83.27743820655732L5.077372663249381,81.40466772787515z" style="fill:rgb(247,158,158)"/><path d="M5.118901071368929,90.58590345927826L-2.976157452277394,83.31316992510034L-3.0004510176912866,92.49157983896802z" style="fill:rgb(83,212,212)"/><path d="M6.11306943171535,83.27743820655732L5.118901071368929,90.58590345927826L6.162970599242628,92.45590685229196z" style="fill:rgb(247,158,158)"/><path d="M56.886510788885424,75.90560702924546L-50.115731368021024,103.163980188777L57.83482748765126,77.81665206436975zM-1.9425351971363771,94.35410319466466L5.118901071368929,90.58590345927826L-3.0004510176912866,92.49157983896802zM5.118901071368929,90.58590345927826L-1.9425351971363771,94.35410319466466L6.162970599242628,92.45590685229196z" style="fill:rgb(127,37,217)"/><path d="M37.673564519906485,84.263834668221L51.95481540101459,68.9967429549635L37.279059093524836,72.47921240905757z" style="fill:rgb(83,212,212)"/><path d="M51.95481540101459,68.9967429549635L53.469713081745255,82.70070288017665L52.90889107747519,70.9134347976853z" style="fill:rgb(247,158,158)"/><path d="M51.95481540101459,68.9967429549635L37.673564519906485,84.263834668221L52.506623464178354,80.78717764604072z" style="fill:rgb(83,212,212)"/><path d="M53.469713081745255,82.70070288017665L51.95481540101459,68.9967429549635L52.506623464178354,80.78717764604072z" style="fill:rgb(247,158,158)"/><path d="M38.66261234312118,86.16354969521723L52.506623464178354,80.78717764604072L37.673564519906485,84.263834668221zM52.506623464178354,80.78717764604072L38.66261234312118,86.16354969521723L53.469713081745255,82.70070288017665z" style="fill:rgb(127,37,217)"/><path d="M-3.0392541904566173,107.15191439263754L5.228554822941255,114.8284905749839L5.185235668260677,105.25135690470744z" style="fill:rgb(83,212,212)"/><path d="M5.228554822941255,114.8284905749839L6.2426759581556235,107.11633289241584L5.185235668260677,105.25135690470744z" style="fill:rgb(247,158,158)"/><path d="M5.228554822941255,114.8284905749839L-3.0392541904566173,107.15191439263754L-3.0645931432812605,116.72529074920766z" style="fill:rgb(83,212,212)"/><path d="M6.2426759581556235,107.11633289241584L5.228554822941255,114.8284905749839L6.294724564675661,116.68978018288561z" style="fill:rgb(247,158,158)"/><path d="M-1.9839784971157062,118.5789763163816L5.228554822941255,114.8284905749839L-3.0645931432812605,116.72529074920766zM5.228554822941255,114.8284905749839L-1.9839784971157062,118.5789763163816L6.294724564675661,116.68978018288561z" style="fill:rgb(127,37,217)"/><path d="M-3.1315375894131954,142.01774787000252L5.2977810285623494,130.13323577622202L-3.105084290679002,132.0233575568828z" style="fill:rgb(83,212,212)"/><path d="M5.343009273889817,140.13243715416183L6.377897281059971,131.98797295974427L5.2977810285623494,130.13323577622202zM6.377897281059971,131.98797295974427L5.343009273889817,140.13243715416183L6.432234949906798,141.9824539530411z" style="fill:rgb(247,158,158)"/><path d="M5.2977810285623494,130.13323577622202L-3.1315375894131954,142.01774787000252L5.343009273889817,140.13243715416183z" style="fill:rgb(83,212,212)"/><path d="M-2.0272287149465273,143.8600419227259L5.343009273889817,140.13243715416183L-3.1315375894131954,142.01774787000252zM5.343009273889817,140.13243715416183L-2.0272287149465273,143.8600419227259L6.432234949906798,141.9824539530411z" style="fill:rgb(127,37,217)"/></svg>
