<?xml version="1.0" encoding="UTF-8"?>
<!-- Generated by jsxcad -->
<!DOCTYPE svg PUBLIC "-//W3C//DTD SVG 1.1 Tiny//EN" "http://www.w3.org/Graphics/SVG/1.1/DTD/svg11-tiny.dtd">
<svg viewBox="-250 -250 500 500" width="500" height="500" xmlns="http://www.w3.org/2000/svg"><path d="M-32.023962694477326,-78.66074761871035L-31.50563516123129,-89.0684964604637L-31.74375788449465,-87.08209101604876z" style="fill:rgb(0,137,137)"/><path d="M-18.00731408793682,-80.43428661786935L-17.631073327015432,-86.86009792156183L-17.849505553600302,-88.85330853608933z" style="fill:rgb(254,133,133)"/><path d="M-19.16255872015496,-82.2495844386741L-17.849505553600302,-88.85330853608933L-18.994356783359514,-90.66616951199988z" style="fill:rgb(242,166,166)"/><path d="M-31.50563516123129,-89.0684964604637L-30.611437123022366,-82.42893751587272L-30.34269861043299,-90.84527455065748z" style="fill:rgb(14,169,169)"/><path d="M-17.631073327015432,-86.86009792156183L-18.00731408793682,-80.43428661786935L-17.78667340619224,-78.43847137424731z" style="fill:rgb(254,133,133)"/><path d="M-30.611437123022366,-82.42893751587272L-28.40919036955517,-92.1694839997768L-30.34269861043299,-90.84527455065748z" style="fill:rgb(43,195,195)"/><path d="M-21.09944465813196,-83.63634984275252L-18.994356783359514,-90.66616951199988L-20.914014909368838,-92.05104242578585z" style="fill:rgb(215,192,192)"/><path d="M-31.50563516123129,-89.0684964604637L-32.023962694477326,-78.66074761871035L-31.784231839371618,-80.649760523293z" style="fill:rgb(0,137,137)"/><path d="M-23.348922458246673,-92.81721699921947L-21.09944465813196,-83.63634984275252L-20.914014909368838,-92.05104242578585z" style="fill:rgb(175,210,210)"/><path d="M-23.556081967225776,-84.40358440975699L-24.928035038242133,-73.63760834590042L-22.354310027369465,-73.96154674906532zM-26.197163867050836,-84.44503245071012L-27.4984738921221,-74.0415328443568L-24.928035038242133,-73.63760834590042zM-21.09944465813196,-83.63634984275252L-22.354310027369465,-73.96154674906532L-20.120363871452735,-74.97076704454997z" style="fill:rgb(127,37,217)"/><path d="M-28.40919036955517,-92.1694839997768L-26.197163867050836,-84.44503245071012L-25.966769454252415,-92.85860759290124z" style="fill:rgb(83,212,212)"/><path d="M-28.661101076460884,-83.75495474091059L-29.722921267673147,-75.1202190100045L-27.4984738921221,-74.0415328443568z" style="fill:rgb(127,37,217)"/><path d="M-17.849505553600302,-88.85330853608933L-19.16255872015496,-82.2495844386741L-18.00731408793682,-80.43428661786935z" style="fill:rgb(242,166,166)"/><path d="M-26.197163867050836,-84.44503245071012L-23.348922458246673,-92.81721699921947L-25.966769454252415,-92.85860759290124z" style="fill:rgb(130,217,217)"/><path d="M-19.16255872015496,-82.2495844386741L-20.120363871452735,-74.97076704454997L-18.525634412030286,-76.5321757732099z" style="fill:rgb(127,37,217)"/><path d="M-30.611437123022366,-82.42893751587272L-31.50563516123129,-89.0684964604637L-31.784231839371618,-80.649760523293z" style="fill:rgb(14,169,169)"/><path d="M-30.611437123022366,-82.42893751587272L-31.30301852268811,-76.7313194101898L-29.722921267673147,-75.1202190100045zM-18.00731408793682,-80.43428661786935L-18.525634412030286,-76.5321757732099L-17.78667340619224,-78.43847137424731zM-31.30301852268811,-76.7313194101898L-31.784231839371618,-80.649760523293L-32.023962694477326,-78.66074761871035z" style="fill:rgb(127,37,217)"/><path d="M-18.994356783359514,-90.66616951199988L-21.09944465813196,-83.63634984275252L-19.16255872015496,-82.2495844386741z" style="fill:rgb(215,192,192)"/><path d="M-19.16255872015496,-82.2495844386741L-18.525634412030286,-76.5321757732099L-18.00731408793682,-80.43428661786935zM-31.784231839371618,-80.649760523293L-31.30301852268811,-76.7313194101898L-30.611437123022366,-82.42893751587272z" style="fill:rgb(127,37,217)"/><path d="M-28.40919036955517,-92.1694839997768L-30.611437123022366,-82.42893751587272L-28.661101076460884,-83.75495474091059z" style="fill:rgb(43,195,195)"/><path d="M-21.09944465813196,-83.63634984275252L-20.120363871452735,-74.97076704454997L-19.16255872015496,-82.2495844386741zM-30.611437123022366,-82.42893751587272L-29.722921267673147,-75.1202190100045L-28.661101076460884,-83.75495474091059zM-23.556081967225776,-84.40358440975699L-22.354310027369465,-73.96154674906532L-21.09944465813196,-83.63634984275252z" style="fill:rgb(127,37,217)"/><path d="M-26.197163867050836,-84.44503245071012L-28.40919036955517,-92.1694839997768L-28.661101076460884,-83.75495474091059z" style="fill:rgb(83,212,212)"/><path d="M-28.661101076460884,-83.75495474091059L-27.4984738921221,-74.0415328443568L-26.197163867050836,-84.44503245071012zM-26.197163867050836,-84.44503245071012L-24.928035038242133,-73.63760834590042L-23.556081967225776,-84.40358440975699z" style="fill:rgb(127,37,217)"/><path d="M-21.09944465813196,-83.63634984275252L-23.348922458246673,-92.81721699921947L-23.556081967225776,-84.40358440975699z" style="fill:rgb(175,210,210)"/><path d="M-23.348922458246673,-92.81721699921947L-26.197163867050836,-84.44503245071012L-23.556081967225776,-84.40358440975699z" style="fill:rgb(130,217,217)"/><path d="M-7.224564284485177,-113.5161714025352L27.82213735683644,-81.20684470240838L26.605292936074957,-123.18998921008587z" style="fill:rgb(83,212,212)"/><path d="M27.82213735683644,-81.20684470240838L30.757908434612325,-113.69615253423974L26.605292936074957,-123.18998921008587z" style="fill:rgb(247,158,158)"/><path d="M-21.699392590338597,-66.4977830402668L-15.815820144217549,-62.71436585436019L-15.728087732190279,-68.14169088594139z" style="fill:rgb(83,212,212)"/><path d="M-13.509264135398038,-63.346268587276434L-12.340086793455374,-66.56223078468676L-13.434283844786606,-68.7731749117602z" style="fill:rgb(247,158,158)"/><path d="M-15.728087732190279,-68.14169088594139L-13.509264135398038,-63.346268587276434L-13.434283844786606,-68.7731749117602zM-15.815820144217549,-62.71436585436019L-21.699392590338597,-66.4977830402668L-21.82025306075175,-61.06938682647757z" style="fill:rgb(83,212,212)"/><path d="M-12.340086793455374,-66.56223078468676L-13.509264135398038,-63.346268587276434L-12.408822170242802,-61.1338760534958z" style="fill:rgb(247,158,158)"/><path d="M-15.815820144217549,-62.71436585436019L-20.7054653848996,-58.86608888267198L-14.71138898288003,-60.50449536949766z" style="fill:rgb(127,37,217)"/><path d="M-13.509264135398038,-63.346268587276434L-15.728087732190279,-68.14169088594139L-15.815820144217549,-62.71436585436019z" style="fill:rgb(83,212,212)"/><path d="M-20.7054653848996,-58.86608888267198L-15.815820144217549,-62.71436585436019L-21.82025306075175,-61.06938682647757zM-13.509264135398038,-63.346268587276434L-14.71138898288003,-60.50449536949766L-12.408822170242802,-61.1338760534958z" style="fill:rgb(127,37,217)"/><path d="M27.82213735683644,-81.20684470240838L-7.224564284485177,-113.5161714025352L-7.552124765431521,-71.45892067200731z" style="fill:rgb(83,212,212)"/><path d="M-14.71138898288003,-60.50449536949766L-13.509264135398038,-63.346268587276434L-15.815820144217549,-62.71436585436019z" style="fill:rgb(127,37,217)"/><path d="M30.757908434612325,-113.69615253423974L27.82213735683644,-81.20684470240838L32.15269393587772,-71.64021830315073z" style="fill:rgb(247,158,158)"/><path d="M-2.960028961445882,-62.05699779772224L27.82213735683644,-81.20684470240838L-7.552124765431521,-71.45892067200731zM27.82213735683644,-81.20684470240838L-2.960028961445882,-62.05699779772224L32.15269393587772,-71.64021830315073z" style="fill:rgb(127,37,217)"/><path d="M-34.215566134889144,-38.46551552807947L-31.19456602063741,-39.90203416187151L-33.98500512866689,-45.221865903521824zM-31.19456602063741,-39.90203416187151L-34.215566134889144,-38.46551552807947L-31.405153180055816,-33.14307005377213z" style="fill:rgb(247,158,158)"/><path d="M-42.71197903432696,-42.85823678938745L-34.215566134889144,-38.46551552807947L-33.98500512866689,-45.221865903521824z" style="fill:rgb(83,212,212)"/><path d="M-34.215566134889144,-38.46551552807947L-40.15361914591775,-30.80146091043774L-31.405153180055816,-33.14307005377213z" style="fill:rgb(127,37,217)"/><path d="M-34.215566134889144,-38.46551552807947L-42.71197903432696,-42.85823678938745L-43.00111106853249,-36.10068034017062z" style="fill:rgb(83,212,212)"/><path d="M-40.15361914591775,-30.80146091043774L-34.215566134889144,-38.46551552807947L-43.00111106853249,-36.10068034017062z" style="fill:rgb(127,37,217)"/><path d="M-21.597689357176076,-41.86191300646657L-18.714129937060694,-43.263371432597324L-21.4516991086336,-48.61640660336316zM-18.714129937060694,-43.263371432597324L-21.597689357176076,-41.86191300646657L-18.84085995096757,-36.50602186147135z" style="fill:rgb(247,158,158)"/><path d="M-30.233215628003723,-46.238004728907804L-21.597689357176076,-41.86191300646657L-21.4516991086336,-48.61640660336316z" style="fill:rgb(83,212,212)"/><path d="M-21.597689357176076,-41.86191300646657L-27.644102910679145,-34.14975079628136L-18.84085995096757,-36.50602186147135z" style="fill:rgb(127,37,217)"/><path d="M-21.597689357176076,-41.86191300646657L-30.233215628003723,-46.238004728907804L-30.438516833828462,-39.48219687953327z" style="fill:rgb(83,212,212)"/><path d="M-27.644102910679145,-34.14975079628136L-21.597689357176076,-41.86191300646657L-30.438516833828462,-39.48219687953327z" style="fill:rgb(127,37,217)"/><path d="M-8.90019986605065,-45.27974276844494L-6.155867316116781,-46.645674319960406L-8.839850184129403,-52.03222523173521zM-6.155867316116781,-46.645674319960406L-8.90019986605065,-45.27974276844494L-6.1976850261278775,-39.890086721636905z" style="fill:rgb(247,158,158)"/><path d="M-17.67642551853269,-49.63891164386599L-8.90019986605065,-45.27974276844494L-8.839850184129403,-52.03222523173521z" style="fill:rgb(83,212,212)"/><path d="M-8.90019986605065,-45.27974276844494L-15.056222963537635,-37.51901560644624L-6.1976850261278775,-39.890086721636905z" style="fill:rgb(127,37,217)"/><path d="M-8.90019986605065,-45.27974276844494L-17.67642551853269,-49.63891164386599L-17.796836619227584,-42.88500219629107z" style="fill:rgb(83,212,212)"/><path d="M-15.056222963537635,-37.51901560644624L-8.90019986605065,-45.27974276844494L-17.796836619227584,-42.88500219629107z" style="fill:rgb(127,37,217)"/><path d="M3.8776573719105896,-48.71920006158155L6.480951323195761,-50.049134851111305L3.851281453631667,-55.469511604034075z" style="fill:rgb(247,158,158)"/><path d="M-5.075316126188255,-46.3092975514263L3.851281453631667,-55.469511604034075L-5.0408694951075645,-53.06114564914904z" style="fill:rgb(83,212,212)"/><path d="M6.480951323195761,-50.049134851111305L3.8776573719105896,-48.71920006158155L6.52511601373333,-43.29546188206008zM16.62244606403114,-58.92847968528208L19.328297116880705,-46.7223566636565L19.197064737914648,-53.47394653739788z" style="fill:rgb(247,158,158)"/><path d="M3.8776573719105896,-48.71920006158155L-2.389239718439101,-40.90945341012361L6.52511601373333,-43.29546188206008zM-2.389239718439101,-40.90945341012361L3.8776573719105896,-48.71920006158155L-5.075316126188255,-46.3092975514263z" style="fill:rgb(127,37,217)"/><path d="M3.851281453631667,-55.469511604034075L-5.075316126188255,-46.3092975514263L3.8776573719105896,-48.71920006158155zM7.674192853478216,-56.504918887175634L16.736648104658162,-52.18050177515877L16.62244606403114,-58.92847968528208z" style="fill:rgb(83,212,212)"/><path d="M16.736648104658162,-52.18050177515877L10.357595386694149,-44.321264025238655L19.328297116880705,-46.7223566636565z" style="fill:rgb(127,37,217)"/><path d="M19.328297116880705,-46.7223566636565L16.62244606403114,-58.92847968528208L16.736648104658162,-52.18050177515877z" style="fill:rgb(247,158,158)"/><path d="M16.736648104658162,-52.18050177515877L7.674192853478216,-56.504918887175634L7.72680034120242,-49.75529021734512z" style="fill:rgb(83,212,212)"/><path d="M10.357595386694149,-44.321264025238655L16.736648104658162,-52.18050177515877L7.72680034120242,-49.75529021734512z" style="fill:rgb(127,37,217)"/><path d="M-42.30128880868601,-92.99590218792379L57.10172163247707,76.33928817915583L47.15357523309589,-118.34162776794788z" style="fill:rgb(83,212,212)"/><path d="M57.10172163247707,76.33928817915583L47.95249677786428,-116.4462630529013L47.15357523309589,-118.34162776794788zM-35.34315661408996,-5.422661366760513L-31.923538058170525,-16.505092121836896L-34.78318413206962,-21.832067055381987z" style="fill:rgb(247,158,158)"/><path d="M-43.71288868450535,-19.465111079456506L-35.34315661408996,-5.422661366760513L-34.78318413206962,-21.832067055381987z" style="fill:rgb(83,212,212)"/><path d="M-31.923538058170525,-16.505092121836896L-35.34315661408996,-5.422661366760513L-32.434857445116144,-0.0938847400033138zM-9.048796580868583,-28.65336069094292L-6.402211043716273,-6.849219592684057L-6.3006392040808485,-23.257998116282174z" style="fill:rgb(247,158,158)"/><path d="M-35.34315661408996,-5.422661366760513L-43.71288868450535,-19.465111079456506L-44.415028363825016,-3.0547996254155096zM-18.093304933131137,-26.255975691290274L-9.195422276237563,-12.247518490434079L-9.048796580868583,-28.65336069094292z" style="fill:rgb(83,212,212)"/><path d="M-35.34315661408996,-5.422661366760513L-41.46720344913144,2.249961571838921L-32.434857445116144,-0.0938847400033138zM-41.46720344913144,2.249961571838921L-35.34315661408996,-5.422661366760513L-44.415028363825016,-3.0547996254155096z" style="fill:rgb(127,37,217)"/><path d="M-6.402211043716273,-6.849219592684057L-9.048796580868583,-28.65336069094292L-9.195422276237563,-12.247518490434079z" style="fill:rgb(247,158,158)"/><path d="M-9.195422276237563,-12.247518490434079L-18.093304933131137,-26.255975691290274L-18.385819423027726,-9.848720091239327z" style="fill:rgb(83,212,212)"/><path d="M17.295450651935905,-19.161937673343008L19.651435706459292,-30.0976570258397L17.017885344680757,-35.56273404071369z" style="fill:rgb(247,158,158)"/><path d="M7.856346271066217,-33.13432808346353L17.295450651935905,-19.161937673343008L17.017885344680757,-35.56273404071369z" style="fill:rgb(83,212,212)"/><path d="M-9.195422276237563,-12.247518490434079L-15.551958900029184,-4.474908307689857L-6.402211043716273,-6.849219592684057zM-15.551958900029184,-4.474908307689857L-9.195422276237563,-12.247518490434079L-18.385819423027726,-9.848720091239327z" style="fill:rgb(127,37,217)"/><path d="M19.651435706459292,-30.0976570258397L17.295450651935905,-19.161937673343008L19.970302081215415,-13.692748617510135z" style="fill:rgb(247,158,158)"/><path d="M17.295450651935905,-19.161937673343008L7.856346271066217,-33.13432808346353L7.984191333364633,-16.731593377346535z" style="fill:rgb(83,212,212)"/><path d="M44.13626197735156,-26.167694586489L45.93906905372193,-37.02575275128585L43.42334029954381,-42.56190423451969z" style="fill:rgb(247,158,158)"/><path d="M34.1424835585471,-40.10187130411003L44.13626197735156,-26.167694586489L43.42334029954381,-42.56190423451969z" style="fill:rgb(83,212,212)"/><path d="M17.295450651935905,-19.161937673343008L10.700847038569936,-11.287374131573543L19.970302081215415,-13.692748617510135zM10.700847038569936,-11.287374131573543L17.295450651935905,-19.161937673343008L7.984191333364633,-16.731593377346535z" style="fill:rgb(127,37,217)"/><path d="M45.93906905372193,-37.02575275128585L44.13626197735156,-26.167694586489L46.68937931393022,-20.626209069259737z" style="fill:rgb(247,158,158)"/><path d="M44.13626197735156,-26.167694586489L34.1424835585471,-40.10187130411003L34.70173986534678,-23.70517730643457z" style="fill:rgb(83,212,212)"/><path d="M44.13626197735156,-26.167694586489L37.29785578766698,-18.18915775092978L46.68937931393022,-20.626209069259737zM37.29785578766698,-18.18915775092978L44.13626197735156,-26.167694586489L34.70173986534678,-23.70517730643457z" style="fill:rgb(127,37,217)"/><path d="M57.10172163247707,76.33928817915583L-42.30128880868601,-92.99590218792379L-50.990653890593194,101.76336439043116z" style="fill:rgb(83,212,212)"/><path d="M47.95249677786428,-116.4462630529013L57.10172163247707,76.33928817915583L58.04918162712034,78.24861872578873zM5.100305144062503,36.99581621293597L6.141974989560385,47.33446986962961L6.094246692810439,38.87629424057589z" style="fill:rgb(247,158,158)"/><path d="M-2.628927669898958,38.91217320031146L5.140324693922377,45.45522440600539L5.100305144062503,36.99581621293597zM5.140324693922377,45.45522440600539L-2.628927669898958,38.91217320031146L-2.649515886530767,47.37032464771096z" style="fill:rgb(83,212,212)"/><path d="M6.141974989560385,47.33446986962961L5.100305144062503,36.99581621293597L5.140324693922377,45.45522440600539z" style="fill:rgb(247,158,158)"/><path d="M-1.6351193215379618,49.24236042973655L5.140324693922377,45.45522440600539L-2.649515886530767,47.37032464771096zM5.140324693922377,45.45522440600539L-1.6351193215379618,49.24236042973655L6.141974989560385,47.33446986962961z" style="fill:rgb(127,37,217)"/><path d="M5.204194352870491,58.95611827203203L6.267841205574391,69.63987327712528L6.218144606985165,60.83288189677158z" style="fill:rgb(247,158,158)"/><path d="M-2.682372621177232,60.86869128371231L5.245867501115579,67.76507014035491L5.204194352870491,58.95611827203203zM5.245867501115579,67.76507014035491L-2.682372621177232,60.86869128371231L-2.703809866117929,69.67564469962724z" style="fill:rgb(83,212,212)"/><path d="M6.267841205574391,69.63987327712528L5.204194352870491,58.95611827203203L5.245867501115579,67.76507014035491z" style="fill:rgb(247,158,158)"/><path d="M-1.668561863606086,71.54310522100747L5.245867501115579,67.76507014035491L-2.703809866117929,69.67564469962724zM5.245867501115579,67.76507014035491L-1.668561863606086,71.54310522100747L6.267841205574391,69.63987327712528zM-49.85989777322202,103.5735270683713L57.10172163247707,76.33928817915583L-50.990653890593194,101.76336439043116z" style="fill:rgb(127,37,217)"/><path d="M5.312403845598124,81.82965322857807L6.39897404987921,92.87860313507085L6.34718483150433,83.70076777469066z" style="fill:rgb(247,158,158)"/><path d="M-2.738035698528369,83.73646793010765L5.355835240471021,91.01026672001386L5.312403845598124,81.82965322857807zM5.355835240471021,91.01026672001386L-2.738035698528369,83.73646793010765L-2.760375586869509,92.91424970577064z" style="fill:rgb(83,212,212)"/><path d="M57.10172163247707,76.33928817915583L-49.85989777322202,103.5735270683713L58.04918162712034,78.24861872578873z" style="fill:rgb(127,37,217)"/><path d="M6.39897404987921,92.87860313507085L5.312403845598124,81.82965322857807L5.355835240471021,91.01026672001386z" style="fill:rgb(247,158,158)"/><path d="M-1.7034009466421685,94.7751160522089L5.355835240471021,91.01026672001386L-2.760375586869509,92.91424970577064zM5.355835240471021,91.01026672001386L-1.7034009466421685,94.7751160522089L6.39897404987921,92.87860313507085z" style="fill:rgb(127,37,217)"/><path d="M37.89801500800171,84.69494647174612L52.17133308252207,69.43170867774812L37.501336064016215,72.91106348200262z" style="fill:rgb(83,212,212)"/><path d="M52.17133308252207,69.43170867774812L53.68741036346691,83.13322939476424L53.124556369854254,71.34668812737758z" style="fill:rgb(247,158,158)"/><path d="M52.17133308252207,69.43170867774812L37.89801500800171,84.69494647174612L52.72519031168499,81.22143185158032z" style="fill:rgb(83,212,212)"/><path d="M53.68741036346691,83.13322939476424L52.17133308252207,69.43170867774812L52.72519031168499,81.22143185158032z" style="fill:rgb(247,158,158)"/><path d="M38.88617603126528,86.59295248508067L52.72519031168499,81.22143185158032L37.89801500800171,84.69494647174612zM52.72519031168499,81.22143185158032L38.88617603126528,86.59295248508067L53.68741036346691,83.13322939476424z" style="fill:rgb(127,37,217)"/><path d="M5.425208836407344,105.67459955246892L6.535711143841894,117.11049707382736L6.481694293700939,107.53789151218274z" style="fill:rgb(247,158,158)"/><path d="M-2.796057908574312,107.57344091579391L5.470512146386563,115.25090218290069L5.425208836407344,105.67459955246892zM5.470512146386563,115.25090218290069L-2.796057908574312,107.57344091579391L-2.8193586749557915,117.14596333784661z" style="fill:rgb(83,212,212)"/><path d="M6.535711143841894,117.11049707382736L5.425208836407344,105.67459955246892L5.470512146386563,115.25090218290069z" style="fill:rgb(247,158,158)"/><path d="M-1.7397259142119221,118.9979645843757L5.470512146386563,115.25090218290069L-2.8193586749557915,117.14596333784661zM5.470512146386563,115.25090218290069L-1.7397259142119221,118.9979645843757L6.535711143841894,117.11049707382736z" style="fill:rgb(127,37,217)"/><path d="M-2.85659247676386,132.44254729278822L5.590207329523387,140.5523050527785L5.542908422472238,130.5541691943119z" style="fill:rgb(83,212,212)"/><path d="M5.590207329523387,140.5523050527785L6.622028233866505,132.40719530555398L5.542908422472238,130.5541691943119z" style="fill:rgb(247,158,158)"/><path d="M5.590207329523387,140.5523050527785L-2.85659247676386,132.44254729278822L-2.880917475149109,142.4358494371646z" style="fill:rgb(83,212,212)"/><path d="M6.622028233866505,132.40719530555398L5.590207329523387,140.5523050527785L6.678419596916236,142.4006005883493z" style="fill:rgb(247,158,158)"/><path d="M-1.777633896936809,144.27643301579934L5.590207329523387,140.5523050527785L-2.880917475149109,142.4358494371646zM5.590207329523387,140.5523050527785L-1.777633896936809,144.27643301579934L6.678419596916236,142.4006005883493z" style="fill:rgb(127,37,217)"/></svg>
