<?xml version="1.0" encoding="UTF-8"?>
<!-- Generated by jsxcad -->
<!DOCTYPE svg PUBLIC "-//W3C//DTD SVG 1.1 Tiny//EN" "http://www.w3.org/Graphics/SVG/1.1/DTD/svg11-tiny.dtd">
<svg viewBox="-250 -250 500 500" width="500" height="500" xmlns="http://www.w3.org/2000/svg"><path d="M-42.511176224120845,-93.40762415620205L-27.316380178944886,-81.42298796526548L46.97218146249253,-118.77195581275855zM-27.316380178944886,-81.42298796526548L-42.511176224120845,-93.40762415620205L-27.55628449177643,-72.99454105493487z" style="fill:rgb(83,212,212)"/><path d="M-17.404799017409495,-84.19228186086909L-24.001900034582277,-80.64469218541008L-21.453561090503968,-80.96741139072994zM-17.404799017409495,-84.19228186086909L-26.546384846228996,-81.0471024011402L-24.001900034582277,-80.64469218541008zM-26.546384846228996,-81.0471024011402L-17.404799017409495,-84.19228186086909L-27.316380178944886,-81.42298796526548zM-17.404799017409495,-84.19228186086909L-21.453561090503968,-80.96741139072994L-19.24109409739334,-81.97283882598595z" style="fill:rgb(127,37,217)"/><path d="M46.97218146249253,-118.77195581275855L-27.316380178944886,-81.42298796526548L-17.404799017409495,-84.19228186086909z" style="fill:rgb(83,212,212)"/><path d="M-17.404799017409495,-84.19228186086909L-19.24109409739334,-81.97283882598595L-17.66107841716521,-83.52834859558585z" style="fill:rgb(127,37,217)"/><path d="M-24.21254776484519,-72.21530752044903L-21.453561090503968,-80.96741139072994L-24.001900034582277,-80.64469218541008z" style="fill:rgb(106,216,216)"/><path d="M-26.779448000256735,-72.61820146355164L-24.001900034582277,-80.64469218541008L-26.546384846228996,-81.0471024011402z" style="fill:rgb(153,215,215)"/><path d="M-27.316380178944886,-81.42298796526548L-26.779448000256735,-72.61820146355164L-26.546384846228996,-81.0471024011402z" style="fill:rgb(196,203,203)"/><path d="M-21.453561090503968,-80.96741139072994L-19.410161211095474,-73.5450600762183L-19.24109409739334,-81.97283882598595z" style="fill:rgb(62,205,205)"/><path d="M-19.24109409739334,-81.97283882598595L-17.81647903615542,-75.10248093006089L-17.66107841716521,-83.52834859558585z" style="fill:rgb(27,183,183)"/><path d="M46.97218146249253,-118.77195581275855L-17.404799017409495,-84.19228186086909L-17.55803579409243,-75.7672484567702z" style="fill:rgb(83,212,212)"/><path d="M-17.66107841716521,-83.52834859558585L-17.55803579409243,-75.7672484567702L-17.404799017409495,-84.19228186086909z" style="fill:rgb(5,153,153)"/><path d="M-24.001900034582277,-80.64469218541008L-26.779448000256735,-72.61820146355164L-24.21254776484519,-72.21530752044903z" style="fill:rgb(153,215,215)"/><path d="M-21.453561090503968,-80.96741139072994L-24.21254776484519,-72.21530752044903L-21.641898471340976,-72.5384143977748z" style="fill:rgb(106,216,216)"/><path d="M-26.779448000256735,-72.61820146355164L-27.316380178944886,-81.42298796526548L-27.55628449177643,-72.99454105493487z" style="fill:rgb(196,203,203)"/><path d="M-19.410161211095474,-73.5450600762183L-21.453561090503968,-80.96741139072994L-21.641898471340976,-72.5384143977748z" style="fill:rgb(62,205,205)"/><path d="M-17.81647903615542,-75.10248093006089L-19.24109409739334,-81.97283882598595L-19.410161211095474,-73.5450600762183z" style="fill:rgb(27,183,183)"/><path d="M-17.144966831800776,-87.41551546292041L-17.077257007629235,-77.00390025834483L-16.92805268004295,-85.42737748866956z" style="fill:rgb(254,133,133)"/><path d="M-31.022676593303277,-85.64879733743997L-31.055452032389024,-79.20952829574475L-30.783589588759586,-87.63015709629181z" style="fill:rgb(0,137,137)"/><path d="M-17.55803579409243,-75.7672484567702L-17.66107841716521,-83.52834859558585L-17.81647903615542,-75.10248093006089z" style="fill:rgb(5,153,153)"/><path d="M-31.055452032389024,-79.20952829574475L-29.621001266075208,-89.40242272916413L-30.783589588759586,-87.63015709629181z" style="fill:rgb(14,169,169)"/><path d="M-18.44896301237633,-80.80524466293438L-17.144966831800776,-87.41551546292041L-18.287231064884907,-89.22376394023689z" style="fill:rgb(242,166,166)"/><path d="M-31.055452032389024,-79.20952829574475L-31.022676593303277,-85.64879733743997L-31.296165527583167,-77.22561232969773z" style="fill:rgb(0,137,137)"/><path d="M-20.20357675469746,-90.60510833325976L-18.44896301237633,-80.80524466293438L-18.287231064884907,-89.22376394023689z" style="fill:rgb(215,192,192)"/><path d="M-29.88301063093001,-80.98413201030831L-27.68911667927828,-90.72324794244149L-29.621001266075208,-89.40242272916413z" style="fill:rgb(43,195,195)"/><path d="M-17.077257007629235,-77.00390025834483L-17.144966831800776,-87.41551546292041L-17.29635199375988,-78.99460631508549z" style="fill:rgb(254,133,133)"/><path d="M-22.634897038635305,-91.36932979842898L-20.38247703975355,-82.18844548252261L-20.20357675469746,-90.60510833325976z" style="fill:rgb(175,210,210)"/><path d="M-22.83546287116103,-82.95370187048957L-24.21254776484519,-72.21530752044903L-21.641898471340976,-72.5384143977748zM-25.473116972752976,-82.99504740251115L-26.779448000256735,-72.61820146355164L-24.21254776484519,-72.21530752044903z" style="fill:rgb(127,37,217)"/><path d="M-27.934326345512073,-82.30674034970508L-25.249376244583786,-91.41061391611682L-27.68911667927828,-90.72324794244149z" style="fill:rgb(83,212,212)"/><path d="M-20.38247703975355,-82.18844548252261L-21.641898471340976,-72.5384143977748L-19.410161211095474,-73.5450600762183zM-27.934326345512073,-82.30674034970508L-29.000360148321356,-73.69413057793928L-26.779448000256735,-72.61820146355164z" style="fill:rgb(127,37,217)"/><path d="M-17.144966831800776,-87.41551546292041L-18.44896301237633,-80.80524466293438L-17.29635199375988,-78.99460631508549z" style="fill:rgb(242,166,166)"/><path d="M-25.249376244583786,-91.41061391611682L-22.83546287116103,-82.95370187048957L-22.634897038635305,-91.36932979842898z" style="fill:rgb(130,217,217)"/><path d="M-18.44896301237633,-80.80524466293438L-19.410161211095474,-73.5450600762183L-17.81647903615542,-75.10248093006089zM-29.88301063093001,-80.98413201030831L-30.577395365535793,-75.30112048581884L-29.000360148321356,-73.69413057793928zM-17.29635199375988,-78.99460631508549L-17.81647903615542,-75.10248093006089L-17.077257007629235,-77.00390025834483z" style="fill:rgb(127,37,217)"/><path d="M-29.621001266075208,-89.40242272916413L-31.055452032389024,-79.20952829574475L-29.88301063093001,-80.98413201030831z" style="fill:rgb(14,169,169)"/><path d="M-30.577395365535793,-75.30112048581884L-31.055452032389024,-79.20952829574475L-31.296165527583167,-77.22561232969773zM-18.44896301237633,-80.80524466293438L-17.81647903615542,-75.10248093006089L-17.29635199375988,-78.99460631508549z" style="fill:rgb(127,37,217)"/><path d="M-18.44896301237633,-80.80524466293438L-20.20357675469746,-90.60510833325976L-20.38247703975355,-82.18844548252261z" style="fill:rgb(215,192,192)"/><path d="M-31.055452032389024,-79.20952829574475L-30.577395365535793,-75.30112048581884L-29.88301063093001,-80.98413201030831z" style="fill:rgb(127,37,217)"/><path d="M-27.68911667927828,-90.72324794244149L-29.88301063093001,-80.98413201030831L-27.934326345512073,-82.30674034970508z" style="fill:rgb(43,195,195)"/><path d="M-20.38247703975355,-82.18844548252261L-19.410161211095474,-73.5450600762183L-18.44896301237633,-80.80524466293438zM-29.88301063093001,-80.98413201030831L-29.000360148321356,-73.69413057793928L-27.934326345512073,-82.30674034970508zM-22.83546287116103,-82.95370187048957L-21.641898471340976,-72.5384143977748L-20.38247703975355,-82.18844548252261zM-27.934326345512073,-82.30674034970508L-26.779448000256735,-72.61820146355164L-25.473116972752976,-82.99504740251115zM-25.473116972752976,-82.99504740251115L-24.21254776484519,-72.21530752044903L-22.83546287116103,-82.95370187048957z" style="fill:rgb(127,37,217)"/><path d="M-20.38247703975355,-82.18844548252261L-22.634897038635305,-91.36932979842898L-22.83546287116103,-82.95370187048957z" style="fill:rgb(175,210,210)"/><path d="M-25.249376244583786,-91.41061391611682L-27.934326345512073,-82.30674034970508L-25.473116972752976,-82.99504740251115z" style="fill:rgb(83,212,212)"/><path d="M-22.83546287116103,-82.95370187048957L-25.249376244583786,-91.41061391611682L-25.473116972752976,-82.99504740251115z" style="fill:rgb(130,217,217)"/><path d="M-7.425289636865284,-113.94292452313734L27.624123695584682,-81.64427487318105L26.4154895854515,-123.6239317594724z" style="fill:rgb(83,212,212)"/><path d="M27.624123695584682,-81.64427487318105L30.571187267045293,-114.12304843453578L26.4154895854515,-123.6239317594724zM-13.64312591619395,-69.1951644530413L-12.618017220743035,-61.55445287196709L-12.548096552034716,-66.98253606821191z" style="fill:rgb(247,158,158)"/><path d="M-21.91094000092087,-66.91803910297962L-16.026616446409495,-63.13614912241727L-15.93768095101129,-68.56319511974034zM-16.026616446409495,-63.13614912241727L-13.64312591619395,-69.1951644530413L-15.93768095101129,-68.56319511974034zM-16.026616446409495,-63.13614912241727L-21.91094000092087,-66.91803910297962L-22.033025285225932,-61.48991414440523z" style="fill:rgb(83,212,212)"/><path d="M-12.618017220743035,-61.55445287196709L-13.64312591619395,-69.1951644530413L-13.719300911670114,-63.76854016596664z" style="fill:rgb(247,158,158)"/><path d="M-16.026616446409495,-63.13614912241727L-20.917389302757364,-59.284942214363724L-14.921343589670313,-60.92459714598215zM-20.917389302757364,-59.284942214363724L-16.026616446409495,-63.13614912241727L-22.033025285225932,-61.48991414440523z" style="fill:rgb(127,37,217)"/><path d="M-13.64312591619395,-69.1951644530413L-16.026616446409495,-63.13614912241727L-13.719300911670114,-63.76854016596664z" style="fill:rgb(83,212,212)"/><path d="M-13.719300911670114,-63.76854016596664L-14.921343589670313,-60.92459714598215L-12.618017220743035,-61.55445287196709z" style="fill:rgb(127,37,217)"/><path d="M27.624123695584682,-81.64427487318105L-7.425289636865284,-113.94292452313734L-7.76208103534102,-71.8887920436202z" style="fill:rgb(83,212,212)"/><path d="M-14.921343589670313,-60.92459714598215L-13.719300911670114,-63.76854016596664L-16.026616446409495,-63.13614912241727z" style="fill:rgb(127,37,217)"/><path d="M30.571187267045293,-114.12304843453578L27.624123695584682,-81.64427487318105L31.95804100198741,-72.07022430889492z" style="fill:rgb(247,158,158)"/><path d="M-3.1664526439631393,-62.47963554757422L27.624123695584682,-81.64427487318105L-7.76208103534102,-71.8887920436202zM27.624123695584682,-81.64427487318105L-3.1664526439631393,-62.47963554757422L31.95804100198741,-72.07022430889492z" style="fill:rgb(127,37,217)"/><path d="M-34.206095641947854,-45.643362305378076L-31.625644541380378,-33.560644402768105L-31.413496876577177,-40.3194158391895z" style="fill:rgb(247,158,158)"/><path d="M-42.9359684352683,-43.27790137075949L-34.438247185339506,-38.88723691214359L-34.206095641947854,-45.643362305378076z" style="fill:rgb(83,212,212)"/><path d="M-34.438247185339506,-38.88723691214359L-40.3770217929153,-31.21721462362892L-31.625644541380378,-33.560644402768105z" style="fill:rgb(127,37,217)"/><path d="M-31.625644541380378,-33.560644402768105L-34.206095641947854,-45.643362305378076L-34.438247185339506,-38.88723691214359z" style="fill:rgb(247,158,158)"/><path d="M-34.438247185339506,-38.88723691214359L-42.9359684352683,-43.27790137075949L-43.226729974516196,-36.52055653595397z" style="fill:rgb(83,212,212)"/><path d="M-40.3770217929153,-31.21721462362892L-34.438247185339506,-38.88723691214359L-43.226729974516196,-36.52055653595397z" style="fill:rgb(127,37,217)"/><path d="M-21.81612983291342,-42.28629175609957L-18.928909749943234,-43.68335482103005L-21.668605654984674,-49.04054614211393zM-18.928909749943234,-43.68335482103005L-21.81612983291342,-42.28629175609957L-19.057144191676244,-36.926214041973566z" style="fill:rgb(247,158,158)"/><path d="M-30.453059169210213,-46.66029522016271L-21.81612983291342,-42.28629175609957L-21.668605654984674,-49.04054614211393z" style="fill:rgb(83,212,212)"/><path d="M-21.81612983291342,-42.28629175609957L-27.863340556272526,-34.568107804736776L-19.057144191676244,-36.926214041973566z" style="fill:rgb(127,37,217)"/><path d="M-21.81612983291342,-42.28629175609957L-30.453059169210213,-46.66029522016271L-30.659934067378938,-39.904712981328124z" style="fill:rgb(83,212,212)"/><path d="M-27.863340556272526,-34.568107804736776L-21.81612983291342,-42.28629175609957L-30.659934067378938,-39.904712981328124z" style="fill:rgb(127,37,217)"/><path d="M-9.114339557070343,-45.70680106644526L-6.366440636986715,-47.06827633625241L-9.052513735849448,-52.45902199985865z" style="fill:rgb(247,158,158)"/><path d="M-18.013991820135626,-43.31018278182905L-9.052513735849448,-52.45902199985865L-17.892064012048,-50.0638419682305z" style="fill:rgb(83,212,212)"/><path d="M-6.366440636986715,-47.06827633625241L-9.114339557070343,-45.70680106644526L-6.409705712543316,-40.31292179533011z" style="fill:rgb(247,158,158)"/><path d="M-9.114339557070343,-45.70680106644526L-15.27123534710307,-37.93999817498473L-6.409705712543316,-40.31292179533011zM-15.27123534710307,-37.93999817498473L-9.114339557070343,-45.70680106644526L-18.013991820135626,-43.31018278182905z" style="fill:rgb(127,37,217)"/><path d="M3.667876638387289,-49.14897165656801L6.274642125088489,-50.474384800598436L3.642917885848113,-55.89900156719408z" style="fill:rgb(247,158,158)"/><path d="M-9.052513735849448,-52.45902199985865L-18.013991820135626,-43.31018278182905L-9.114339557070343,-45.70680106644526zM-5.288154385882766,-46.73717093241389L3.642917885848113,-55.89900156719408L-5.252249181245691,-53.48875150549027z" style="fill:rgb(83,212,212)"/><path d="M6.274642125088489,-50.474384800598436L3.667876638387289,-49.14897165656801L6.317417684892235,-43.720967046575005zM16.418441650175428,-59.360677431023426L19.124980804616495,-47.15054991037917L18.99507812620884,-53.90187504086797z" style="fill:rgb(247,158,158)"/><path d="M3.667876638387289,-49.14897165656801L-2.599969653047785,-41.33308595566075L6.317417684892235,-43.720967046575005zM-2.599969653047785,-41.33308595566075L3.667876638387289,-49.14897165656801L-5.288154385882766,-46.73717093241389z" style="fill:rgb(127,37,217)"/><path d="M3.642917885848113,-55.89900156719408L-5.288154385882766,-46.73717093241389L3.667876638387289,-49.14897165656801zM7.467130637072962,-56.93521468780305L16.53128675625194,-52.61300174666106L16.418441650175428,-59.360677431023426z" style="fill:rgb(83,212,212)"/><path d="M16.53128675625194,-52.61300174666106L10.151205909415163,-44.747569470885686L19.124980804616495,-47.15054991037917z" style="fill:rgb(127,37,217)"/><path d="M19.124980804616495,-47.15054991037917L16.418441650175428,-59.360677431023426L16.53128675625194,-52.61300174666106z" style="fill:rgb(247,158,158)"/><path d="M16.53128675625194,-52.61300174666106L7.467130637072962,-56.93521468780305L7.518338904907889,-50.18587387271303z" style="fill:rgb(83,212,212)"/><path d="M10.151205909415163,-44.747569470885686L16.53128675625194,-52.61300174666106L7.518338904907889,-50.18587387271303z" style="fill:rgb(127,37,217)"/><path d="M-42.511176224120845,-93.40762415620205L56.886510788885424,75.90560702924546L-27.55628449177643,-72.99454105493487z" style="fill:rgb(83,212,212)"/><path d="M46.97218146249253,-118.77195581275855L57.83482748765126,77.81665206436975L47.771700353611585,-116.87518556288114zM-35.00978621924505,-22.25418457088316L-32.66299426619703,-0.5118928685741286L-32.14787495678112,-16.92299012518146z" style="fill:rgb(247,158,158)"/><path d="M46.97218146249253,-118.77195581275855L-17.55803579409243,-75.7672484567702L56.886510788885424,75.90560702924546zM-43.94252566488662,-19.88535112398515L-35.57363409556689,-5.844958086672808L-35.00978621924505,-22.25418457088316zM-27.55628449177643,-72.99454105493487L56.886510788885424,75.90560702924546L-17.55803579409243,-75.7672484567702z" style="fill:rgb(83,212,212)"/><path d="M-32.66299426619703,-0.5118928685741286L-35.00978621924505,-22.25418457088316L-35.57363409556689,-5.844958086672808z" style="fill:rgb(247,158,158)"/><path d="M-35.57363409556689,-5.844958086672808L-43.94252566488662,-19.88535112398515L-44.64863795223058,-3.4751879352974746z" style="fill:rgb(83,212,212)"/><path d="M-9.416787811526333,-12.675338982770095L-6.51622422549542,-23.681246079988284L-9.266572341054577,-29.080912278384904z" style="fill:rgb(247,158,158)"/><path d="M-18.314197274893143,-26.681613478801435L-9.416787811526333,-12.675338982770095L-9.266572341054577,-29.080912278384904z" style="fill:rgb(83,212,212)"/><path d="M-35.57363409556689,-5.844958086672808L-41.69844326652602,1.8338328468859646L-32.66299426619703,-0.5118928685741286zM-41.69844326652602,1.8338328468859646L-35.57363409556689,-5.844958086672808L-44.64863795223058,-3.4751879352974746z" style="fill:rgb(127,37,217)"/><path d="M-6.51622422549542,-23.681246079988284L-9.416787811526333,-12.675338982770095L-6.6213139143967314,-7.272668487044365z" style="fill:rgb(247,158,158)"/><path d="M-9.416787811526333,-12.675338982770095L-18.314197274893143,-26.681613478801435L-18.610402864968965,-10.274595313275983z" style="fill:rgb(83,212,212)"/><path d="M17.083458261016464,-19.59539341454921L19.444848130192906,-30.526363648432095L16.809184865957878,-35.99582531168885z" style="fill:rgb(247,158,158)"/><path d="M7.644440383318898,-33.565468281642254L17.083458261016464,-19.59539341454921L16.809184865957878,-35.99582531168885z" style="fill:rgb(83,212,212)"/><path d="M-9.416787811526333,-12.675338982770095L-15.77425329767856,-4.896440654131955L-6.6213139143967314,-7.272668487044365zM-15.77425329767856,-4.896440654131955L-9.416787811526333,-12.675338982770095L-18.610402864968965,-10.274595313275983z" style="fill:rgb(127,37,217)"/><path d="M19.444848130192906,-30.526363648432095L17.083458261016464,-19.59539341454921L19.760490662632115,-14.12174498327671z" style="fill:rgb(247,158,158)"/><path d="M17.083458261016464,-19.59539341454921L7.644440383318898,-33.565468281642254L7.7688878536280255,-17.163063312531758z" style="fill:rgb(83,212,212)"/><path d="M43.93390985930531,-26.60689625735364L45.741729751012286,-37.460021593640626L43.22396953140323,-43.00064355579939z" style="fill:rgb(247,158,158)"/><path d="M34.49598267441413,-24.142354969874333L43.22396953140323,-43.00064355579939L33.93981785494121,-40.53862125352994z" style="fill:rgb(83,212,212)"/><path d="M17.083458261016464,-19.59539341454921L10.487754223715228,-11.714416546929767L19.760490662632115,-14.12174498327671zM10.487754223715228,-11.714416546929767L17.083458261016464,-19.59539341454921L7.7688878536280255,-17.163063312531758z" style="fill:rgb(127,37,217)"/><path d="M45.741729751012286,-37.460021593640626L43.93390985930531,-26.60689625735364L46.48912261287137,-21.060862624641263z" style="fill:rgb(247,158,158)"/><path d="M43.22396953140323,-43.00064355579939L34.49598267441413,-24.142354969874333L43.93390985930531,-26.60689625735364z" style="fill:rgb(83,212,212)"/><path d="M43.93390985930531,-26.60689625735364L37.094224431080406,-18.621818636650016L46.48912261287137,-21.060862624641263zM37.094224431080406,-18.621818636650016L43.93390985930531,-26.60689625735364L34.49598267441413,-24.142354969874333z" style="fill:rgb(127,37,217)"/><path d="M56.886510788885424,75.90560702924546L-42.511176224120845,-93.40762415620205L-51.247476122015144,101.35223486387076z" style="fill:rgb(83,212,212)"/><path d="M57.83482748765126,77.81665206436975L46.97218146249253,-118.77195581275855L56.886510788885424,75.90560702924546z" style="fill:rgb(247,158,158)"/><path d="M-2.857510173315658,38.486726860728595L4.91283614663346,45.02842204875864L4.874571427869161,36.568741621338624z" style="fill:rgb(83,212,212)"/><path d="M4.91283614663346,45.02842204875864L5.869357504281888,38.450817444652614L4.874571427869161,36.568741621338624z" style="fill:rgb(247,158,158)"/><path d="M4.91283614663346,45.02842204875864L-2.857510173315658,38.486726860728595L-2.879898084080475,46.94516223951027z" style="fill:rgb(83,212,212)"/><path d="M5.869357504281888,38.450817444652614L4.91283614663346,45.02842204875864L5.915344195840748,46.90927678589611z" style="fill:rgb(247,158,158)"/><path d="M-1.8646345203458041,48.81879522283761L4.91283614663346,45.02842204875864L-2.879898084080475,46.94516223951027zM4.91283614663346,45.02842204875864L-1.8646345203458041,48.81879522283761L5.915344195840748,46.90927678589611z" style="fill:rgb(127,37,217)"/><path d="M4.973905705321445,58.52987033537223L6.036619003805939,69.21570070409061L5.988735034077674,60.40826107078966z" style="fill:rgb(247,158,158)"/><path d="M-2.9156272667860375,60.44410147337711L5.013752181327821,67.33925915444037L4.973905705321445,58.52987033537223zM5.013752181327821,67.33925915444037L-2.9156272667860375,60.44410147337711L-2.938938828161657,69.25149798137325z" style="fill:rgb(83,212,212)"/><path d="M6.036619003805939,69.21570070409061L4.973905705321445,58.52987033537223L5.013752181327821,67.33925915444037z" style="fill:rgb(247,158,158)"/><path d="M-1.9027878762179573,71.12058731841724L5.013752181327821,67.33925915444037L-2.938938828161657,69.25149798137325zM5.013752181327821,67.33925915444037L-1.9027878762179573,71.12058731841724L6.036619003805939,69.21570070409061zM-50.115731368021024,103.163980188777L56.886510788885424,75.90560702924546L-51.247476122015144,101.35223486387076z" style="fill:rgb(127,37,217)"/><path d="M-2.976157452277394,83.31316992510034L5.118901071368929,90.58590345927826L5.077372663249381,81.40466772787515z" style="fill:rgb(83,212,212)"/><path d="M5.118901071368929,90.58590345927826L6.11306943171535,83.27743820655732L5.077372663249381,81.40466772787515z" style="fill:rgb(247,158,158)"/><path d="M5.118901071368929,90.58590345927826L-2.976157452277394,83.31316992510034L-3.0004510176912866,92.49157983896802z" style="fill:rgb(83,212,212)"/><path d="M6.11306943171535,83.27743820655732L5.118901071368929,90.58590345927826L6.162970599242628,92.45590685229196z" style="fill:rgb(247,158,158)"/><path d="M56.886510788885424,75.90560702924546L-50.115731368021024,103.163980188777L57.83482748765126,77.81665206436975zM-1.9425351971363771,94.35410319466466L5.118901071368929,90.58590345927826L-3.0004510176912866,92.49157983896802zM5.118901071368929,90.58590345927826L-1.9425351971363771,94.35410319466466L6.162970599242628,92.45590685229196z" style="fill:rgb(127,37,217)"/><path d="M37.673564519906485,84.263834668221L51.95481540101459,68.9967429549635L37.279059093524836,72.47921240905757z" style="fill:rgb(83,212,212)"/><path d="M51.95481540101459,68.9967429549635L53.469713081745255,82.70070288017665L52.90889107747519,70.9134347976853z" style="fill:rgb(247,158,158)"/><path d="M51.95481540101459,68.9967429549635L37.673564519906485,84.263834668221L52.506623464178354,80.78717764604072z" style="fill:rgb(83,212,212)"/><path d="M53.469713081745255,82.70070288017665L51.95481540101459,68.9967429549635L52.506623464178354,80.78717764604072z" style="fill:rgb(247,158,158)"/><path d="M38.66261234312118,86.16354969521723L52.506623464178354,80.78717764604072L37.673564519906485,84.263834668221zM52.506623464178354,80.78717764604072L38.66261234312118,86.16354969521723L53.469713081745255,82.70070288017665z" style="fill:rgb(127,37,217)"/><path d="M-3.0645931432812605,116.72529074920766L5.185235668260677,105.25135690470744L-3.0392541904566173,107.15191439263754z" style="fill:rgb(83,212,212)"/><path d="M5.228554822941255,114.8284905749839L6.2426759581556235,107.11633289241584L5.185235668260677,105.25135690470744zM6.2426759581556235,107.11633289241584L5.228554822941255,114.8284905749839L6.294724564675661,116.68978018288561z" style="fill:rgb(247,158,158)"/><path d="M5.185235668260677,105.25135690470744L-3.0645931432812605,116.72529074920766L5.228554822941255,114.8284905749839z" style="fill:rgb(83,212,212)"/><path d="M-1.9839784971157062,118.5789763163816L5.228554822941255,114.8284905749839L-3.0645931432812605,116.72529074920766zM5.228554822941255,114.8284905749839L-1.9839784971157062,118.5789763163816L6.294724564675661,116.68978018288561z" style="fill:rgb(127,37,217)"/><path d="M-3.105084290679002,132.0233575568828L5.343009273889817,140.13243715416183L5.2977810285623494,130.13323577622202z" style="fill:rgb(83,212,212)"/><path d="M5.343009273889817,140.13243715416183L6.377897281059971,131.98797295974427L5.2977810285623494,130.13323577622202z" style="fill:rgb(247,158,158)"/><path d="M5.343009273889817,140.13243715416183L-3.105084290679002,132.0233575568828L-3.1315375894131954,142.01774787000252z" style="fill:rgb(83,212,212)"/><path d="M6.377897281059971,131.98797295974427L5.343009273889817,140.13243715416183L6.432234949906798,141.9824539530411z" style="fill:rgb(247,158,158)"/><path d="M-2.0272287149465273,143.8600419227259L5.343009273889817,140.13243715416183L-3.1315375894131954,142.01774787000252zM5.343009273889817,140.13243715416183L-2.0272287149465273,143.8600419227259L6.432234949906798,141.9824539530411z" style="fill:rgb(127,37,217)"/></svg>
