<?xml version="1.0" encoding="UTF-8"?>
<!-- Generated by jsxcad -->
<!DOCTYPE svg PUBLIC "-//W3C//DTD SVG 1.1 Tiny//EN" "http://www.w3.org/Graphics/SVG/1.1/DTD/svg11-tiny.dtd">
<svg viewBox="-250 -250 500 500" width="500" height="500" xmlns="http://www.w3.org/2000/svg"><path d="M-32.02396269447733,-78.66074761871036L-31.50563516123129,-89.0684964604637L-31.743757884494656,-87.08209101604878z" style="fill:rgb(0,137,137)"/><path d="M-18.007314087936823,-80.43428661786936L-17.631073327015436,-86.86009792156185L-17.849505553600306,-88.85330853608936z" style="fill:rgb(254,133,133)"/><path d="M-19.162558720154962,-82.24958443867412L-17.849505553600306,-88.85330853608936L-18.994356783359517,-90.6661695119999z" style="fill:rgb(242,166,166)"/><path d="M-31.50563516123129,-89.0684964604637L-30.61143712302237,-82.42893751587273L-30.34269861043299,-90.84527455065748z" style="fill:rgb(14,169,169)"/><path d="M-17.631073327015436,-86.86009792156185L-18.007314087936823,-80.43428661786936L-17.786673406192243,-78.43847137424733z" style="fill:rgb(254,133,133)"/><path d="M-30.61143712302237,-82.42893751587273L-28.40919036955517,-92.1694839997768L-30.34269861043299,-90.84527455065748z" style="fill:rgb(43,195,195)"/><path d="M-21.09944465813196,-83.63634984275252L-18.994356783359517,-90.6661695119999L-20.91401490936884,-92.05104242578588z" style="fill:rgb(215,192,192)"/><path d="M-31.50563516123129,-89.0684964604637L-32.02396269447733,-78.66074761871036L-31.784231839371618,-80.64976052329301z" style="fill:rgb(0,137,137)"/><path d="M-23.348922458246676,-92.8172169992195L-21.09944465813196,-83.63634984275252L-20.91401490936884,-92.05104242578588z" style="fill:rgb(175,210,210)"/><path d="M-23.55608196722578,-84.403584409757L-24.928035038242143,-73.63760834590045L-22.354310027369465,-73.96154674906533zM-26.19716386705084,-84.44503245071013L-27.49847389212211,-74.04153284435682L-24.928035038242143,-73.63760834590045z" style="fill:rgb(127,37,217)"/><path d="M-28.661101076460884,-83.75495474091059L-25.966769454252415,-92.85860759290124L-28.40919036955517,-92.1694839997768z" style="fill:rgb(83,212,212)"/><path d="M-21.09944465813196,-83.63634984275252L-22.354310027369465,-73.96154674906533L-20.12036387145274,-74.97076704454999zM-28.661101076460884,-83.75495474091059L-29.72292126767315,-75.12021901000452L-27.49847389212211,-74.04153284435682z" style="fill:rgb(127,37,217)"/><path d="M-17.849505553600306,-88.85330853608936L-19.162558720154962,-82.24958443867412L-18.007314087936823,-80.43428661786936z" style="fill:rgb(242,166,166)"/><path d="M-25.966769454252415,-92.85860759290124L-23.55608196722578,-84.403584409757L-23.348922458246676,-92.8172169992195z" style="fill:rgb(130,217,217)"/><path d="M-19.162558720154962,-82.24958443867412L-20.12036387145274,-74.97076704454999L-18.525634412030286,-76.5321757732099z" style="fill:rgb(127,37,217)"/><path d="M-30.61143712302237,-82.42893751587273L-31.50563516123129,-89.0684964604637L-31.784231839371618,-80.64976052329301z" style="fill:rgb(14,169,169)"/><path d="M-30.61143712302237,-82.42893751587273L-31.303018522688117,-76.73131941018981L-29.72292126767315,-75.12021901000452zM-18.007314087936823,-80.43428661786936L-18.525634412030286,-76.5321757732099L-17.786673406192243,-78.43847137424733zM-31.303018522688117,-76.73131941018981L-31.784231839371618,-80.64976052329301L-32.02396269447733,-78.66074761871036z" style="fill:rgb(127,37,217)"/><path d="M-18.994356783359517,-90.6661695119999L-21.09944465813196,-83.63634984275252L-19.162558720154962,-82.24958443867412z" style="fill:rgb(215,192,192)"/><path d="M-19.162558720154962,-82.24958443867412L-18.525634412030286,-76.5321757732099L-18.007314087936823,-80.43428661786936zM-31.784231839371618,-80.64976052329301L-31.303018522688117,-76.73131941018981L-30.61143712302237,-82.42893751587273z" style="fill:rgb(127,37,217)"/><path d="M-28.40919036955517,-92.1694839997768L-30.61143712302237,-82.42893751587273L-28.661101076460884,-83.75495474091059z" style="fill:rgb(43,195,195)"/><path d="M-21.09944465813196,-83.63634984275252L-20.12036387145274,-74.97076704454999L-19.162558720154962,-82.24958443867412zM-30.61143712302237,-82.42893751587273L-29.72292126767315,-75.12021901000452L-28.661101076460884,-83.75495474091059zM-23.55608196722578,-84.403584409757L-22.354310027369465,-73.96154674906533L-21.09944465813196,-83.63634984275252zM-28.661101076460884,-83.75495474091059L-27.49847389212211,-74.04153284435682L-26.19716386705084,-84.44503245071013zM-26.19716386705084,-84.44503245071013L-24.928035038242143,-73.63760834590045L-23.55608196722578,-84.403584409757z" style="fill:rgb(127,37,217)"/><path d="M-21.09944465813196,-83.63634984275252L-23.348922458246676,-92.8172169992195L-23.55608196722578,-84.403584409757z" style="fill:rgb(175,210,210)"/><path d="M-25.966769454252415,-92.85860759290124L-28.661101076460884,-83.75495474091059L-26.19716386705084,-84.44503245071013z" style="fill:rgb(83,212,212)"/><path d="M-23.55608196722578,-84.403584409757L-25.966769454252415,-92.85860759290124L-26.19716386705084,-84.44503245071013z" style="fill:rgb(130,217,217)"/><path d="M-7.2245642844851785,-113.51617140253522L27.822137356836443,-81.20684470240839L26.60529293607496,-123.18998921008588z" style="fill:rgb(83,212,212)"/><path d="M27.822137356836443,-81.20684470240839L30.757908434612336,-113.69615253423979L26.60529293607496,-123.18998921008588z" style="fill:rgb(247,158,158)"/><path d="M-21.699392590338597,-66.49778304026681L-15.815820144217549,-62.7143658543602L-15.728087732190282,-68.1416908859414z" style="fill:rgb(83,212,212)"/><path d="M-13.50926413539804,-63.34626858727645L-12.340086793455376,-66.56223078468678L-13.434283844786608,-68.77317491176021z" style="fill:rgb(247,158,158)"/><path d="M-15.728087732190282,-68.1416908859414L-13.50926413539804,-63.34626858727645L-13.434283844786608,-68.77317491176021zM-15.815820144217549,-62.7143658543602L-21.699392590338597,-66.49778304026681L-21.820253060751753,-61.06938682647758z" style="fill:rgb(83,212,212)"/><path d="M-12.340086793455376,-66.56223078468678L-13.50926413539804,-63.34626858727645L-12.408822170242804,-61.133876053495804z" style="fill:rgb(247,158,158)"/><path d="M-15.815820144217549,-62.7143658543602L-20.705465384899604,-58.866088882671995L-14.711388982880033,-60.50449536949767z" style="fill:rgb(127,37,217)"/><path d="M-13.50926413539804,-63.34626858727645L-15.728087732190282,-68.1416908859414L-15.815820144217549,-62.7143658543602z" style="fill:rgb(83,212,212)"/><path d="M-20.705465384899604,-58.866088882671995L-15.815820144217549,-62.7143658543602L-21.820253060751753,-61.06938682647758zM-13.50926413539804,-63.34626858727645L-14.711388982880033,-60.50449536949767L-12.408822170242804,-61.133876053495804z" style="fill:rgb(127,37,217)"/><path d="M27.822137356836443,-81.20684470240839L-7.2245642844851785,-113.51617140253522L-7.552124765431522,-71.45892067200732z" style="fill:rgb(83,212,212)"/><path d="M-14.711388982880033,-60.50449536949767L-13.50926413539804,-63.34626858727645L-15.815820144217549,-62.7143658543602z" style="fill:rgb(127,37,217)"/><path d="M30.757908434612336,-113.69615253423979L27.822137356836443,-81.20684470240839L32.15269393587773,-71.64021830315075z" style="fill:rgb(247,158,158)"/><path d="M-2.9600289614458823,-62.05699779772225L27.822137356836443,-81.20684470240839L-7.552124765431522,-71.45892067200732zM27.822137356836443,-81.20684470240839L-2.9600289614458823,-62.05699779772225L32.15269393587773,-71.64021830315075z" style="fill:rgb(127,37,217)"/><path d="M-34.215566134889144,-38.46551552807947L-31.19456602063741,-39.90203416187151L-33.98500512866689,-45.22186590352183zM-31.19456602063741,-39.90203416187151L-34.215566134889144,-38.46551552807947L-31.405153180055816,-33.14307005377213z" style="fill:rgb(247,158,158)"/><path d="M-42.711979034326966,-42.858236789387455L-34.215566134889144,-38.46551552807947L-33.98500512866689,-45.22186590352183z" style="fill:rgb(83,212,212)"/><path d="M-34.215566134889144,-38.46551552807947L-40.15361914591776,-30.801460910437743L-31.405153180055816,-33.14307005377213z" style="fill:rgb(127,37,217)"/><path d="M-34.215566134889144,-38.46551552807947L-42.711979034326966,-42.858236789387455L-43.001111068532495,-36.10068034017062z" style="fill:rgb(83,212,212)"/><path d="M-40.15361914591776,-30.801460910437743L-34.215566134889144,-38.46551552807947L-43.001111068532495,-36.10068034017062z" style="fill:rgb(127,37,217)"/><path d="M-21.59768935717608,-41.86191300646658L-18.714129937060697,-43.26337143259733L-21.451699108633605,-48.616406603363174zM-18.714129937060697,-43.26337143259733L-21.59768935717608,-41.86191300646658L-18.840859950967573,-36.50602186147136z" style="fill:rgb(247,158,158)"/><path d="M-30.233215628003723,-46.238004728907804L-21.59768935717608,-41.86191300646658L-21.451699108633605,-48.616406603363174z" style="fill:rgb(83,212,212)"/><path d="M-21.59768935717608,-41.86191300646658L-27.644102910679152,-34.14975079628137L-18.840859950967573,-36.50602186147136z" style="fill:rgb(127,37,217)"/><path d="M-21.59768935717608,-41.86191300646658L-30.233215628003723,-46.238004728907804L-30.438516833828466,-39.48219687953328z" style="fill:rgb(83,212,212)"/><path d="M-27.644102910679152,-34.14975079628137L-21.59768935717608,-41.86191300646658L-30.438516833828466,-39.48219687953328z" style="fill:rgb(127,37,217)"/><path d="M-8.900199866050652,-45.279742768444954L-6.155867316116782,-46.64567431996043L-8.839850184129405,-52.03222523173522z" style="fill:rgb(247,158,158)"/><path d="M-17.796836619227584,-42.88500219629107L-8.839850184129405,-52.03222523173522L-17.676425518532692,-49.638911643865995z" style="fill:rgb(83,212,212)"/><path d="M-6.155867316116782,-46.64567431996043L-8.900199866050652,-45.279742768444954L-6.197685026127878,-39.89008672163691z" style="fill:rgb(247,158,158)"/><path d="M-8.900199866050652,-45.279742768444954L-15.056222963537635,-37.51901560644624L-6.197685026127878,-39.89008672163691zM-15.056222963537635,-37.51901560644624L-8.900199866050652,-45.279742768444954L-17.796836619227584,-42.88500219629107z" style="fill:rgb(127,37,217)"/><path d="M3.87765737191059,-48.71920006158155L6.480951323195761,-50.04913485111132L3.8512814536316684,-55.46951160403409z" style="fill:rgb(247,158,158)"/><path d="M-8.839850184129405,-52.03222523173522L-17.796836619227584,-42.88500219629107L-8.900199866050652,-45.279742768444954z" style="fill:rgb(83,212,212)"/><path d="M6.480951323195761,-50.04913485111132L3.87765737191059,-48.71920006158155L6.525116013733331,-43.29546188206009z" style="fill:rgb(247,158,158)"/><path d="M-5.040869495107565,-53.06114564914905L3.87765737191059,-48.71920006158155L3.8512814536316684,-55.46951160403409z" style="fill:rgb(83,212,212)"/><path d="M16.622446064031145,-58.92847968528209L19.32829711688071,-46.722356663656505L19.19706473791465,-53.47394653739789z" style="fill:rgb(247,158,158)"/><path d="M3.87765737191059,-48.71920006158155L-2.389239718439101,-40.90945341012362L6.525116013733331,-43.29546188206009z" style="fill:rgb(127,37,217)"/><path d="M3.87765737191059,-48.71920006158155L-5.040869495107565,-53.06114564914905L-5.075316126188256,-46.309297551426305z" style="fill:rgb(83,212,212)"/><path d="M-2.389239718439101,-40.90945341012362L3.87765737191059,-48.71920006158155L-5.075316126188256,-46.309297551426305z" style="fill:rgb(127,37,217)"/><path d="M7.674192853478217,-56.50491888717564L16.736648104658165,-52.180501775158774L16.622446064031145,-58.92847968528209z" style="fill:rgb(83,212,212)"/><path d="M16.736648104658165,-52.180501775158774L10.35759538669415,-44.32126402523866L19.32829711688071,-46.722356663656505z" style="fill:rgb(127,37,217)"/><path d="M19.32829711688071,-46.722356663656505L16.622446064031145,-58.92847968528209L16.736648104658165,-52.180501775158774z" style="fill:rgb(247,158,158)"/><path d="M16.736648104658165,-52.180501775158774L7.674192853478217,-56.50491888717564L7.726800341202422,-49.75529021734513z" style="fill:rgb(83,212,212)"/><path d="M10.35759538669415,-44.32126402523866L16.736648104658165,-52.180501775158774L7.726800341202422,-49.75529021734513z" style="fill:rgb(127,37,217)"/><path d="M-42.30128880868602,-92.9959021879238L57.10172163247708,76.33928817915583L47.1535752330959,-118.34162776794791z" style="fill:rgb(83,212,212)"/><path d="M47.1535752330959,-118.34162776794791L58.04918162712035,78.24861872578875L47.95249677786429,-116.44626305290132zM-35.34315661408996,-5.422661366760513L-31.923538058170532,-16.5050921218369L-34.78318413206963,-21.83206705538199z" style="fill:rgb(247,158,158)"/><path d="M-43.71288868450536,-19.46511107945651L-35.34315661408996,-5.422661366760513L-34.78318413206963,-21.83206705538199z" style="fill:rgb(83,212,212)"/><path d="M-31.923538058170532,-16.5050921218369L-35.34315661408996,-5.422661366760513L-32.43485744511615,-0.09388474000331382z" style="fill:rgb(247,158,158)"/><path d="M-35.34315661408996,-5.422661366760513L-43.71288868450536,-19.46511107945651L-44.41502836382502,-3.05479962541551z" style="fill:rgb(83,212,212)"/><path d="M-9.195422276237565,-12.247518490434082L-6.300639204080849,-23.257998116282177L-9.048796580868585,-28.653360690942925z" style="fill:rgb(247,158,158)"/><path d="M-18.093304933131137,-26.255975691290278L-9.195422276237565,-12.247518490434082L-9.048796580868585,-28.653360690942925z" style="fill:rgb(83,212,212)"/><path d="M-35.34315661408996,-5.422661366760513L-41.467203449131446,2.2499615718389214L-32.43485744511615,-0.09388474000331382zM-41.467203449131446,2.2499615718389214L-35.34315661408996,-5.422661366760513L-44.41502836382502,-3.05479962541551z" style="fill:rgb(127,37,217)"/><path d="M-6.300639204080849,-23.257998116282177L-9.195422276237565,-12.247518490434082L-6.402211043716274,-6.849219592684059zM17.017885344680757,-35.56273404071369L19.97030208121542,-13.692748617510137L19.651435706459296,-30.097657025839705z" style="fill:rgb(247,158,158)"/><path d="M-9.195422276237565,-12.247518490434082L-18.093304933131137,-26.255975691290278L-18.38581942302773,-9.84872009123933zM7.856346271066217,-33.13432808346354L17.29545065193591,-19.16193767334301L17.017885344680757,-35.56273404071369z" style="fill:rgb(83,212,212)"/><path d="M-9.195422276237565,-12.247518490434082L-15.551958900029188,-4.474908307689858L-6.402211043716274,-6.849219592684059zM-15.551958900029188,-4.474908307689858L-9.195422276237565,-12.247518490434082L-18.38581942302773,-9.84872009123933z" style="fill:rgb(127,37,217)"/><path d="M43.42334029954382,-42.561904234519695L46.689379313930225,-20.62620906925974L45.93906905372194,-37.02575275128586zM19.97030208121542,-13.692748617510137L17.017885344680757,-35.56273404071369L17.29545065193591,-19.16193767334301z" style="fill:rgb(247,158,158)"/><path d="M17.29545065193591,-19.16193767334301L7.856346271066217,-33.13432808346354L7.984191333364635,-16.731593377346538zM34.142483558547106,-40.101871304110034L44.136261977351566,-26.167694586489006L43.42334029954382,-42.561904234519695z" style="fill:rgb(83,212,212)"/><path d="M17.29545065193591,-19.16193767334301L10.700847038569938,-11.287374131573545L19.97030208121542,-13.692748617510137zM10.700847038569938,-11.287374131573545L17.29545065193591,-19.16193767334301L7.984191333364635,-16.731593377346538z" style="fill:rgb(127,37,217)"/><path d="M46.689379313930225,-20.62620906925974L43.42334029954382,-42.561904234519695L44.136261977351566,-26.167694586489006z" style="fill:rgb(247,158,158)"/><path d="M44.136261977351566,-26.167694586489006L34.142483558547106,-40.101871304110034L34.70173986534678,-23.705177306434575z" style="fill:rgb(83,212,212)"/><path d="M44.136261977351566,-26.167694586489006L37.29785578766699,-18.189157750929784L46.689379313930225,-20.62620906925974zM37.29785578766699,-18.189157750929784L44.136261977351566,-26.167694586489006L34.70173986534678,-23.705177306434575z" style="fill:rgb(127,37,217)"/><path d="M57.10172163247708,76.33928817915583L-42.30128880868602,-92.9959021879238L-50.9906538905932,101.76336439043118z" style="fill:rgb(83,212,212)"/><path d="M58.04918162712035,78.24861872578875L47.1535752330959,-118.34162776794791L57.10172163247708,76.33928817915583z" style="fill:rgb(247,158,158)"/><path d="M-2.6289276698989585,38.912173200311464L5.140324693922378,45.4552244060054L5.100305144062505,36.99581621293598z" style="fill:rgb(83,212,212)"/><path d="M5.140324693922378,45.4552244060054L6.094246692810441,38.87629424057589L5.100305144062505,36.99581621293598z" style="fill:rgb(247,158,158)"/><path d="M5.140324693922378,45.4552244060054L-2.6289276698989585,38.912173200311464L-2.6495158865307675,47.370324647710966z" style="fill:rgb(83,212,212)"/><path d="M6.094246692810441,38.87629424057589L5.140324693922378,45.4552244060054L6.141974989560386,47.334469869629615z" style="fill:rgb(247,158,158)"/><path d="M-1.635119321537962,49.24236042973656L5.140324693922378,45.4552244060054L-2.6495158865307675,47.370324647710966zM5.140324693922378,45.4552244060054L-1.635119321537962,49.24236042973656L6.141974989560386,47.334469869629615z" style="fill:rgb(127,37,217)"/><path d="M5.204194352870492,58.95611827203204L6.267841205574392,69.63987327712529L6.218144606985165,60.83288189677159z" style="fill:rgb(247,158,158)"/><path d="M-2.6823726211772323,60.868691283712316L5.24586750111558,67.76507014035492L5.204194352870492,58.95611827203204zM5.24586750111558,67.76507014035492L-2.6823726211772323,60.868691283712316L-2.703809866117929,69.67564469962726z" style="fill:rgb(83,212,212)"/><path d="M6.267841205574392,69.63987327712529L5.204194352870492,58.95611827203204L5.24586750111558,67.76507014035492z" style="fill:rgb(247,158,158)"/><path d="M-1.6685618636060862,71.54310522100748L5.24586750111558,67.76507014035492L-2.703809866117929,69.67564469962726zM5.24586750111558,67.76507014035492L-1.6685618636060862,71.54310522100748L6.267841205574392,69.63987327712529zM-49.85989777322203,103.57352706837132L57.10172163247708,76.33928817915583L-50.9906538905932,101.76336439043118z" style="fill:rgb(127,37,217)"/><path d="M5.3124038455981255,81.8296532285781L6.398974049879213,92.87860313507088L6.347184831504331,83.70076777469068z" style="fill:rgb(247,158,158)"/><path d="M-2.7380356985283694,83.73646793010768L5.355835240471022,91.01026672001387L5.3124038455981255,81.8296532285781zM5.355835240471022,91.01026672001387L-2.7380356985283694,83.73646793010768L-2.7603755868695092,92.91424970577066z" style="fill:rgb(83,212,212)"/><path d="M57.10172163247708,76.33928817915583L-49.85989777322203,103.57352706837132L58.04918162712035,78.24861872578875z" style="fill:rgb(127,37,217)"/><path d="M6.398974049879213,92.87860313507088L5.3124038455981255,81.8296532285781L5.355835240471022,91.01026672001387z" style="fill:rgb(247,158,158)"/><path d="M-1.7034009466421687,94.77511605220892L5.355835240471022,91.01026672001387L-2.7603755868695092,92.91424970577066zM5.355835240471022,91.01026672001387L-1.7034009466421687,94.77511605220892L6.398974049879213,92.87860313507088z" style="fill:rgb(127,37,217)"/><path d="M37.501336064016215,72.91106348200263L52.72519031168499,81.22143185158032L52.171333082522075,69.43170867774813z" style="fill:rgb(83,212,212)"/><path d="M52.72519031168499,81.22143185158032L53.12455636985426,71.34668812737759L52.171333082522075,69.43170867774813z" style="fill:rgb(247,158,158)"/><path d="M52.72519031168499,81.22143185158032L37.501336064016215,72.91106348200263L37.898015008001714,84.69494647174614z" style="fill:rgb(83,212,212)"/><path d="M53.12455636985426,71.34668812737759L52.72519031168499,81.22143185158032L53.68741036346692,83.13322939476426z" style="fill:rgb(247,158,158)"/><path d="M38.88617603126529,86.5929524850807L52.72519031168499,81.22143185158032L37.898015008001714,84.69494647174614zM52.72519031168499,81.22143185158032L38.88617603126529,86.5929524850807L53.68741036346692,83.13322939476426z" style="fill:rgb(127,37,217)"/><path d="M-2.7960579085743125,107.57344091579392L5.470512146386564,115.2509021829007L5.425208836407345,105.67459955246893z" style="fill:rgb(83,212,212)"/><path d="M5.470512146386564,115.2509021829007L6.481694293700941,107.53789151218277L5.425208836407345,105.67459955246893z" style="fill:rgb(247,158,158)"/><path d="M5.470512146386564,115.2509021829007L-2.7960579085743125,107.57344091579392L-2.819358674955792,117.14596333784662z" style="fill:rgb(83,212,212)"/><path d="M6.481694293700941,107.53789151218277L5.470512146386564,115.2509021829007L6.535711143841896,117.1104970738274z" style="fill:rgb(247,158,158)"/><path d="M-1.7397259142119224,118.99796458437571L5.470512146386564,115.2509021829007L-2.819358674955792,117.14596333784662zM5.470512146386564,115.2509021829007L-1.7397259142119224,118.99796458437571L6.535711143841896,117.1104970738274z" style="fill:rgb(127,37,217)"/><path d="M-2.856592476763861,132.44254729278828L5.5902073295233885,140.55230505277856L5.54290842247224,130.55416919431192z" style="fill:rgb(83,212,212)"/><path d="M5.5902073295233885,140.55230505277856L6.622028233866505,132.40719530555398L5.54290842247224,130.55416919431192z" style="fill:rgb(247,158,158)"/><path d="M5.5902073295233885,140.55230505277856L-2.856592476763861,132.44254729278828L-2.88091747514911,142.43584943716465z" style="fill:rgb(83,212,212)"/><path d="M6.622028233866505,132.40719530555398L5.5902073295233885,140.55230505277856L6.678419596916239,142.40060058834936z" style="fill:rgb(247,158,158)"/><path d="M-1.7776338969368093,144.27643301579934L5.5902073295233885,140.55230505277856L-2.88091747514911,142.43584943716465zM5.5902073295233885,140.55230505277856L-1.7776338969368093,144.27643301579934L6.678419596916239,142.40060058834936z" style="fill:rgb(127,37,217)"/></svg>
