<?xml version="1.0" encoding="UTF-8"?>
<!-- Generated by jsxcad -->
<!DOCTYPE svg PUBLIC "-//W3C//DTD SVG 1.1 Tiny//EN" "http://www.w3.org/Graphics/SVG/1.1/DTD/svg11-tiny.dtd">
<svg viewBox="-250 -250 500 500" width="500" height="500" xmlns="http://www.w3.org/2000/svg"><path d="M-23.757472765809553,-105.77488171722864L18.51614965773741,-65.25251862840817L17.52387882386881,-117.54857870171101z" style="fill:rgb(83,212,212)"/><path d="M18.51614965773741,-65.25251862840817L22.693197602702305,-105.99354244676059L17.52387882386881,-117.54857870171101z" style="fill:rgb(247,158,158)"/><path d="M18.51614965773741,-65.25251862840817L-23.757472765809553,-105.77488171722864L-25.088284214172578,-53.38028103713326z" style="fill:rgb(83,212,212)"/><path d="M22.693197602702305,-105.99354244676059L18.51614965773741,-65.25251862840817L23.964647593691787,-53.60063446511146z" style="fill:rgb(247,158,158)"/><path d="M-19.243441737306497,-41.975742467527645L18.51614965773741,-65.25251862840817L-25.088284214172578,-53.38028103713326zM18.51614965773741,-65.25251862840817L-19.243441737306497,-41.975742467527645L23.964647593691787,-53.60063446511146z" style="fill:rgb(127,37,217)"/><path d="M-51.682049319606605,-89.89765287194744L72.90378417884185,128.15952199784263L57.382072064043086,-120.78734790028477z" style="fill:rgb(83,212,212)"/><path d="M57.382072064043086,-120.78734790028477L74.0778350855,130.47482899356842L58.33764416210318,-118.4670347025196z" style="fill:rgb(247,158,158)"/><path d="M72.90378417884185,128.15952199784263L-51.682049319606605,-89.89765287194744L-65.19326305283901,158.77909272712327z" style="fill:rgb(83,212,212)"/><path d="M74.0778350855,130.47482899356842L57.382072064043086,-120.78734790028477L72.90378417884185,128.15952199784263z" style="fill:rgb(247,158,158)"/><path d="M-63.72012642971171,160.9419506861919L72.90378417884185,128.15952199784263L-65.19326305283901,158.77909272712327zM72.90378417884185,128.15952199784263L-63.72012642971171,160.9419506861919L74.0778350855,130.47482899356842z" style="fill:rgb(127,37,217)"/></svg>
