<?xml version="1.0" encoding="UTF-8"?>
<!-- Generated by jsxcad -->
<!DOCTYPE svg PUBLIC "-//W3C//DTD SVG 1.1 Tiny//EN" "http://www.w3.org/Graphics/SVG/1.1/DTD/svg11-tiny.dtd">
<svg viewBox="-250 -250 500 500" width="500" height="500" xmlns="http://www.w3.org/2000/svg"><path d="M-38.25287653138425,-72.62766140531136L-37.58252136166563,-85.09328619327408L-37.853745828166694,-82.7328808143795z" style="fill:rgb(0,137,137)"/><path d="M-21.516505052699802,-74.73540119137884L-21.023878276556182,-82.46918895347912L-21.291581462731706,-84.83750420971204z" style="fill:rgb(254,133,133)"/><path d="M-22.90410056563714,-76.8941194990774L-21.291581462731706,-84.83750420971204L-22.66421351931416,-86.9929446320556z" style="fill:rgb(242,166,166)"/><path d="M-37.58252136166563,-85.09328619327408L-36.58954407324265,-77.1074772655318L-36.20624962739755,-87.20597369524322z" style="fill:rgb(14,169,169)"/><path d="M-21.023878276556182,-82.46918895347912L-21.516505052699802,-74.73540119137884L-21.245501956116367,-72.363584952125z" style="fill:rgb(254,133,133)"/><path d="M-25.22524665909305,-78.54415309847694L-22.66421351931416,-86.9929446320556L-24.96066330626025,-88.64041399184241z" style="fill:rgb(215,192,192)"/><path d="M-37.58252136166563,-85.09328619327408L-38.25287653138425,-72.62766140531136L-37.97963303311568,-74.99156759124428z" style="fill:rgb(0,137,137)"/><path d="M-36.20624962739755,-87.20597369524322L-34.26622175495766,-78.68530581780128L-33.90676432271965,-88.78134498844275z" style="fill:rgb(43,195,195)"/><path d="M-27.87034568448133,-89.55220458387704L-25.22524665909305,-78.54415309847694L-24.96066330626025,-88.64041399184241z" style="fill:rgb(175,210,210)"/><path d="M-28.1660125774695,-79.45738478733371L-29.75078601558268,-66.66499213868425L-26.680629563533607,-67.04920581214529zM-31.324180166189084,-79.50672589854886L-32.82081977385584,-67.14408210081147L-29.75078601558268,-66.66499213868425zM-25.22524665909305,-78.54415309847694L-26.680629563533607,-67.04920581214529L-24.018544368902806,-68.24649009414722z" style="fill:rgb(127,37,217)"/><path d="M-33.90676432271965,-88.78134498844275L-31.324180166189084,-79.50672589854886L-30.995346740725182,-89.60146738983856z" style="fill:rgb(83,212,212)"/><path d="M-34.26622175495766,-78.68530581780128L-35.482450641133106,-68.4238274583685L-32.82081977385584,-67.14408210081147z" style="fill:rgb(127,37,217)"/><path d="M-21.291581462731706,-84.83750420971204L-22.90410056563714,-76.8941194990774L-21.516505052699802,-74.73540119137884z" style="fill:rgb(242,166,166)"/><path d="M-31.324180166189084,-79.50672589854886L-27.87034568448133,-89.55220458387704L-30.995346740725182,-89.60146738983856z" style="fill:rgb(130,217,217)"/><path d="M-22.90410056563714,-76.8941194990774L-24.018544368902806,-68.24649009414722L-22.120840828830996,-70.09968776491054z" style="fill:rgb(127,37,217)"/><path d="M-36.58954407324265,-77.1074772655318L-37.58252136166563,-85.09328619327408L-37.97963303311568,-74.99156759124428z" style="fill:rgb(14,169,169)"/><path d="M-36.58954407324265,-77.1074772655318L-37.37917998026097,-70.33611819921602L-35.482450641133106,-68.4238274583685zM-21.516505052699802,-74.73540119137884L-22.120840828830996,-70.09968776491054L-21.245501956116367,-72.363584952125zM-37.37917998026097,-70.33611819921602L-37.97963303311568,-74.99156759124428L-38.25287653138425,-72.62766140531136z" style="fill:rgb(127,37,217)"/><path d="M-22.66421351931416,-86.9929446320556L-25.22524665909305,-78.54415309847694L-22.90410056563714,-76.8941194990774z" style="fill:rgb(215,192,192)"/><path d="M-34.26622175495766,-78.68530581780128L-36.20624962739755,-87.20597369524322L-36.58954407324265,-77.1074772655318z" style="fill:rgb(43,195,195)"/><path d="M-22.90410056563714,-76.8941194990774L-22.120840828830996,-70.09968776491054L-21.516505052699802,-74.73540119137884zM-37.97963303311568,-74.99156759124428L-37.37917998026097,-70.33611819921602L-36.58954407324265,-77.1074772655318zM-25.22524665909305,-78.54415309847694L-24.018544368902806,-68.24649009414722L-22.90410056563714,-76.8941194990774zM-36.58954407324265,-77.1074772655318L-35.482450641133106,-68.4238274583685L-34.26622175495766,-78.68530581780128zM-28.1660125774695,-79.45738478733371L-26.680629563533607,-67.04920581214529L-25.22524665909305,-78.54415309847694z" style="fill:rgb(127,37,217)"/><path d="M-31.324180166189084,-79.50672589854886L-33.90676432271965,-88.78134498844275L-34.26622175495766,-78.68530581780128z" style="fill:rgb(83,212,212)"/><path d="M-34.26622175495766,-78.68530581780128L-32.82081977385584,-67.14408210081147L-31.324180166189084,-79.50672589854886zM-31.324180166189084,-79.50672589854886L-29.75078601558268,-66.66499213868425L-28.1660125774695,-79.45738478733371z" style="fill:rgb(127,37,217)"/><path d="M-25.22524665909305,-78.54415309847694L-27.87034568448133,-89.55220458387704L-28.1660125774695,-79.45738478733371z" style="fill:rgb(175,210,210)"/><path d="M-27.87034568448133,-89.55220458387704L-31.324180166189084,-79.50672589854886L-28.1660125774695,-79.45738478733371z" style="fill:rgb(130,217,217)"/><path d="M-25.96467648930599,-58.01018620782076L-16.189008606110583,-54.15575447033638L-16.081449704908398,-60.71306982156922z" style="fill:rgb(83,212,212)"/><path d="M-16.189008606110583,-54.15575447033638L-14.765852238578239,-58.08671211600547L-16.081449704908398,-60.71306982156922z" style="fill:rgb(247,158,158)"/><path d="M-16.189008606110583,-54.15575447033638L-25.96467648930599,-58.01018620782076L-26.13790951305144,-51.451024423777035z" style="fill:rgb(83,212,212)"/><path d="M-14.765852238578239,-58.08671211600547L-16.189008606110583,-54.15575447033638L-14.864375031540716,-51.52760138906466z" style="fill:rgb(247,158,158)"/><path d="M-24.792731382444952,-48.83581185119372L-16.189008606110583,-54.15575447033638L-26.13790951305144,-51.451024423777035zM-16.189008606110583,-54.15575447033638L-24.792731382444952,-48.83581185119372L-14.864375031540716,-51.52760138906466z" style="fill:rgb(127,37,217)"/><path d="M-40.846452969941346,-32.208417515910895L-37.75963287806897,-17.657096297890156L-37.455616670425776,-25.89733284624941zM-40.846452969941346,-32.208417515910895L-37.75963287806897,-17.657096297890156L-37.455616670425776,-25.89733284624941z" style="fill:rgb(247,158,158)"/><path d="M-51.31283891509855,-29.402827210994317L-41.17996791528776,-23.970592627962986L-40.846452969941346,-32.208417515910895zM-51.31283891509855,-29.402827210994317L-41.17996791528776,-23.970592627962986L-40.846452969941346,-32.208417515910895z" style="fill:rgb(83,212,212)"/><path d="M-25.79898826014963,-36.24199546422803L-22.66744850739957,-21.64476329357627L-22.48426322526352,-29.883546078270605zM-25.79898826014963,-36.24199546422803L-22.66744850739957,-21.64476329357627L-22.48426322526352,-29.883546078270605z" style="fill:rgb(247,158,158)"/><path d="M-41.17996791528776,-23.970592627962986L-48.25697727269495,-14.883479878701126L-37.75963287806897,-17.657096297890156zM-41.17996791528776,-23.970592627962986L-48.25697727269495,-14.883479878701126L-37.75963287806897,-17.657096297890156z" style="fill:rgb(127,37,217)"/><path d="M-37.75963287806897,-17.657096297890156L-40.846452969941346,-32.208417515910895L-41.17996791528776,-23.970592627962986zM-37.75963287806897,-17.657096297890156L-40.846452969941346,-32.208417515910895L-41.17996791528776,-23.970592627962986z" style="fill:rgb(247,158,158)"/><path d="M-41.17996791528776,-23.970592627962986L-51.31283891509855,-29.402827210994317L-51.73070887774738,-21.163856125622953zM-41.17996791528776,-23.970592627962986L-51.31283891509855,-29.402827210994317L-51.73070887774738,-21.163856125622953z" style="fill:rgb(83,212,212)"/><path d="M-48.25697727269495,-14.883479878701126L-41.17996791528776,-23.970592627962986L-51.73070887774738,-21.163856125622953zM-48.25697727269495,-14.883479878701126L-41.17996791528776,-23.970592627962986L-51.73070887774738,-21.163856125622953z" style="fill:rgb(127,37,217)"/><path d="M-36.344051974422214,-33.41531448447365L-26.010437118595235,-28.0060287408327L-25.79898826014963,-36.24199546422803zM-36.344051974422214,-33.41531448447365L-26.010437118595235,-28.0060287408327L-25.79898826014963,-36.24199546422803z" style="fill:rgb(83,212,212)"/><path d="M-26.010437118595235,-28.0060287408327L-33.24387721766375,-18.850252294360704L-22.66744850739957,-21.64476329357627zM-26.010437118595235,-28.0060287408327L-33.24387721766375,-18.850252294360704L-22.66744850739957,-21.64476329357627z" style="fill:rgb(127,37,217)"/><path d="M-22.66744850739957,-21.64476329357627L-25.79898826014963,-36.24199546422803L-26.010437118595235,-28.0060287408327zM-22.66744850739957,-21.64476329357627L-25.79898826014963,-36.24199546422803L-26.010437118595235,-28.0060287408327z" style="fill:rgb(247,158,158)"/><path d="M-26.010437118595235,-28.0060287408327L-36.344051974422214,-33.41531448447365L-36.64114058369531,-25.178021545634227zM-26.010437118595235,-28.0060287408327L-36.344051974422214,-33.41531448447365L-36.64114058369531,-25.178021545634227z" style="fill:rgb(83,212,212)"/><path d="M-33.24387721766375,-18.850252294360704L-26.010437118595235,-28.0060287408327L-36.64114058369531,-25.178021545634227zM-33.24387721766375,-18.850252294360704L-26.010437118595235,-28.0060287408327L-36.64114058369531,-25.178021545634227z" style="fill:rgb(127,37,217)"/><path d="M-10.725564006934063,-32.07214985528844L-7.40067194234641,-33.899643319924486L-10.638042989128266,-40.3059924615423zM-10.725564006934063,-32.07214985528844L-7.40067194234641,-33.899643319924486L-10.638042989128266,-40.3059924615423zM-7.40067194234641,-33.899643319924486L-10.725564006934063,-32.07214985528844L-7.461195025027657,-25.662569500822034zM-7.40067194234641,-33.899643319924486L-10.725564006934063,-32.07214985528844L-7.461195025027657,-25.662569500822034z" style="fill:rgb(247,158,158)"/><path d="M-21.262679013170064,-37.457985267709205L-10.725564006934063,-32.07214985528844L-10.638042989128266,-40.3059924615423zM-21.262679013170064,-37.457985267709205L-10.725564006934063,-32.07214985528844L-10.638042989128266,-40.3059924615423z" style="fill:rgb(83,212,212)"/><path d="M-10.725564006934063,-32.07214985528844L-18.117607478475623,-22.846925348913228L-7.461195025027657,-25.662569500822034zM-10.725564006934063,-32.07214985528844L-18.117607478475623,-22.846925348913228L-7.461195025027657,-25.662569500822034z" style="fill:rgb(127,37,217)"/><path d="M-10.725564006934063,-32.07214985528844L-21.262679013170064,-37.457985267709205L-21.437146450282462,-29.222627752317067zM-10.725564006934063,-32.07214985528844L-21.262679013170064,-37.457985267709205L-21.437146450282462,-29.222627752317067z" style="fill:rgb(83,212,212)"/><path d="M-18.117607478475623,-22.846925348913228L-10.725564006934063,-32.07214985528844L-21.437146450282462,-29.222627752317067zM-18.117607478475623,-22.846925348913228L-10.725564006934063,-32.07214985528844L-21.437146450282462,-29.222627752317067z" style="fill:rgb(127,37,217)"/><path d="M4.675970772606111,-36.16930884425832L7.7964234911862444,-37.945961620167196L4.637670262952184,-44.40075404902034zM4.675970772606111,-36.16930884425832L7.7964234911862444,-37.945961620167196L4.637670262952184,-44.40075404902034zM7.7964234911862444,-37.945961620167196L4.675970772606111,-36.16930884425832L7.860424915545953,-29.710857908854987zM7.7964234911862444,-37.945961620167196L4.675970772606111,-36.16930884425832L7.860424915545953,-29.710857908854987z" style="fill:rgb(247,158,158)"/><path d="M-6.067439028971139,-41.5311750998289L4.675970772606111,-36.16930884425832L4.637670262952184,-44.40075404902034zM-6.067439028971139,-41.5311750998289L4.675970772606111,-36.16930884425832L4.637670262952184,-44.40075404902034z" style="fill:rgb(83,212,212)"/><path d="M20.02946004623685,-48.526630631453436L23.298728421136857,-33.789976731085815L23.10830825028006,-42.02284347701895zM20.02946004623685,-48.526630631453436L23.298728421136857,-33.789976731085815L23.10830825028006,-42.02284347701895z" style="fill:rgb(247,158,158)"/><path d="M4.675970772606111,-36.16930884425832L-2.8768822166198404,-26.873839969131623L7.860424915545953,-29.710857908854987zM4.675970772606111,-36.16930884425832L-2.8768822166198404,-26.873839969131623L7.860424915545953,-29.710857908854987z" style="fill:rgb(127,37,217)"/><path d="M4.675970772606111,-36.16930884425832L-6.067439028971139,-41.5311750998289L-6.117413895851189,-33.298022163053076zM4.675970772606111,-36.16930884425832L-6.067439028971139,-41.5311750998289L-6.117413895851189,-33.298022163053076z" style="fill:rgb(83,212,212)"/><path d="M-2.8768822166198404,-26.873839969131623L4.675970772606111,-36.16930884425832L-6.117413895851189,-33.298022163053076zM-2.8768822166198404,-26.873839969131623L4.675970772606111,-36.16930884425832L-6.117413895851189,-33.298022163053076z" style="fill:rgb(127,37,217)"/><path d="M9.242958906712346,-45.63523403087802L20.19550836329056,-40.29785612181469L20.02946004623685,-48.526630631453436zM9.242958906712346,-45.63523403087802L20.19550836329056,-40.29785612181469L20.02946004623685,-48.526630631453436z" style="fill:rgb(83,212,212)"/><path d="M20.19550836329056,-40.29785612181469L12.479603159573543,-30.93134070114947L23.298728421136857,-33.789976731085815zM20.19550836329056,-40.29785612181469L12.479603159573543,-30.93134070114947L23.298728421136857,-33.789976731085815z" style="fill:rgb(127,37,217)"/><path d="M23.298728421136857,-33.789976731085815L20.02946004623685,-48.526630631453436L20.19550836329056,-40.29785612181469zM23.298728421136857,-33.789976731085815L20.02946004623685,-48.526630631453436L20.19550836329056,-40.29785612181469z" style="fill:rgb(247,158,158)"/><path d="M20.19550836329056,-40.29785612181469L9.242958906712346,-45.63523403087802L9.319380020925076,-37.40455774530148zM20.19550836329056,-40.29785612181469L9.242958906712346,-45.63523403087802L9.319380020925076,-37.40455774530148z" style="fill:rgb(83,212,212)"/><path d="M12.479603159573543,-30.93134070114947L20.19550836329056,-40.29785612181469L9.319380020925076,-37.40455774530148zM12.479603159573543,-30.93134070114947L20.19550836329056,-40.29785612181469L9.319380020925076,-37.40455774530148z" style="fill:rgb(127,37,217)"/><path d="M-42.00495978393995,-3.593273897053627L-39.25813374543731,22.95916462701593L-38.5115307733967,2.7227939178483576zM-42.00495978393995,-3.593273897053627L-39.25813374543731,22.95916462701593L-38.5115307733967,2.7227939178483576z" style="fill:rgb(247,158,158)"/><path d="M-53.7907231438314,19.452586002749833L-42.00495978393995,-3.593273897053627L-52.764287899557445,-0.7852101977583674zM-53.7907231438314,19.452586002749833L-42.00495978393995,-3.593273897053627L-52.764287899557445,-0.7852101977583674z" style="fill:rgb(83,212,212)"/><path d="M-39.25813374543731,22.95916462701593L-42.00495978393995,-3.593273897053627L-42.82433575404367,16.645330467674174zM-39.25813374543731,22.95916462701593L-42.00495978393995,-3.593273897053627L-42.82433575404367,16.645330467674174z" style="fill:rgb(247,158,158)"/><path d="M-42.00495978393995,-3.593273897053627L-53.7907231438314,19.452586002749833L-42.82433575404367,16.645330467674174zM-42.00495978393995,-3.593273897053627L-53.7907231438314,19.452586002749833L-42.82433575404367,16.645330467674174z" style="fill:rgb(83,212,212)"/><path d="M-11.157236783191031,8.53895991789905L-7.610913364071213,-5.286195591245647L-10.942104753891584,-11.700330567823155zM-11.157236783191031,8.53895991789905L-7.610913364071213,-5.286195591245647L-10.942104753891584,-11.700330567823155z" style="fill:rgb(247,158,158)"/><path d="M-21.868773819386956,-8.848592592313631L-11.157236783191031,8.53895991789905L-10.942104753891584,-11.700330567823155zM-21.868773819386956,-8.848592592313631L-11.157236783191031,8.53895991789905L-10.942104753891584,-11.700330567823155z" style="fill:rgb(83,212,212)"/><path d="M-42.82433575404367,16.645330467674174L-50.1668546204237,25.731985246388543L-39.25813374543731,22.95916462701593zM-42.82433575404367,16.645330467674174L-50.1668546204237,25.731985246388543L-39.25813374543731,22.95916462701593zM-50.1668546204237,25.731985246388543L-42.82433575404367,16.645330467674174L-53.7907231438314,19.452586002749833zM-50.1668546204237,25.731985246388543L-42.82433575404367,16.645330467674174L-53.7907231438314,19.452586002749833z" style="fill:rgb(127,37,217)"/><path d="M-7.610913364071213,-5.286195591245647L-11.157236783191031,8.53895991789905L-7.759621961628956,14.952755343198316zM-7.610913364071213,-5.286195591245647L-11.157236783191031,8.53895991789905L-7.759621961628956,14.952755343198316z" style="fill:rgb(247,158,158)"/><path d="M-11.157236783191031,8.53895991789905L-21.868773819386956,-8.848592592313631L-22.297547401816256,11.390736558014426zM-11.157236783191031,8.53895991789905L-21.868773819386956,-8.848592592313631L-22.297547401816256,11.390736558014426z" style="fill:rgb(83,212,212)"/><path d="M21.014799094863623,0.3033316908081634L23.76987943365101,-13.419639753955824L20.606427389242363,-19.9341435219791zM21.014799094863623,0.3033316908081634L23.76987943365101,-13.419639753955824L20.606427389242363,-19.9341435219791z" style="fill:rgb(247,158,158)"/><path d="M9.508484488596364,-17.037703982531337L21.014799094863623,0.3033316908081634L20.606427389242363,-19.9341435219791zM9.508484488596364,-17.037703982531337L21.014799094863623,0.3033316908081634L20.606427389242363,-19.9341435219791z" style="fill:rgb(83,212,212)"/><path d="M-11.157236783191031,8.53895991789905L-18.840272948547067,17.76927639852532L-7.759621961628956,14.952755343198316zM-11.157236783191031,8.53895991789905L-18.840272948547067,17.76927639852532L-7.759621961628956,14.952755343198316zM-18.840272948547067,17.76927639852532L-11.157236783191031,8.53895991789905L-22.297547401816256,11.390736558014426zM-18.840272948547067,17.76927639852532L-11.157236783191031,8.53895991789905L-22.297547401816256,11.390736558014426z" style="fill:rgb(127,37,217)"/><path d="M23.76987943365101,-13.419639753955824L21.014799094863623,0.3033316908081634L24.237995431412692,6.819481118620755zM23.76987943365101,-13.419639753955824L21.014799094863623,0.3033316908081634L24.237995431412692,6.819481118620755z" style="fill:rgb(247,158,158)"/><path d="M21.014799094863623,0.3033316908081634L9.508484488596364,-17.037703982531337L9.696396294226979,3.200697557901993zM21.014799094863623,0.3033316908081634L9.508484488596364,-17.037703982531337L9.696396294226979,3.200697557901993z" style="fill:rgb(83,212,212)"/><path d="M53.70394668277825,-8.064670472308256L55.64212519426079,-21.680461177902753L52.65211778254413,-28.297706563982487zM53.70394668277825,-8.064670472308256L55.64212519426079,-21.680461177902753L52.65211778254413,-28.297706563982487z" style="fill:rgb(247,158,158)"/><path d="M41.378841370983466,-25.355510170468236L53.70394668277825,-8.064670472308256L52.65211778254413,-28.297706563982487zM41.378841370983466,-25.355510170468236L53.70394668277825,-8.064670472308256L52.65211778254413,-28.297706563982487z" style="fill:rgb(83,212,212)"/><path d="M21.014799094863623,0.3033316908081634L12.98131577285246,9.680746004163858L24.237995431412692,6.819481118620755zM21.014799094863623,0.3033316908081634L12.98131577285246,9.680746004163858L24.237995431412692,6.819481118620755zM12.98131577285246,9.680746004163858L21.014799094863623,0.3033316908081634L9.696396294226979,3.200697557901993zM12.98131577285246,9.680746004163858L21.014799094863623,0.3033316908081634L9.696396294226979,3.200697557901993z" style="fill:rgb(127,37,217)"/><path d="M55.64212519426079,-21.680461177902753L53.70394668277825,-8.064670472308256L56.746673495323854,-1.4436971401040422zM55.64212519426079,-21.680461177902753L53.70394668277825,-8.064670472308256L56.746673495323854,-1.4436971401040422z" style="fill:rgb(247,158,158)"/><path d="M53.70394668277825,-8.064670472308256L41.378841370983466,-25.355510170468236L42.20314594813355,-5.120613186459654zM53.70394668277825,-8.064670472308256L41.378841370983466,-25.355510170468236L42.20314594813355,-5.120613186459654z" style="fill:rgb(83,212,212)"/><path d="M53.70394668277825,-8.064670472308256L45.30974106527294,1.463385892298604L56.746673495323854,-1.4436971401040422zM53.70394668277825,-8.064670472308256L45.30974106527294,1.463385892298604L56.746673495323854,-1.4436971401040422zM45.30974106527294,1.463385892298604L53.70394668277825,-8.064670472308256L42.20314594813355,-5.120613186459654zM45.30974106527294,1.463385892298604L53.70394668277825,-8.064670472308256L42.20314594813355,-5.120613186459654z" style="fill:rgb(127,37,217)"/><path d="M-3.1957560820052007,75.3762517886136L-3.066101893461257,84.70527637389412L-3.041447847504385,75.65271789124733z" style="fill:rgb(247,158,158)"/><path d="M-3.7311793791690415,84.54978690088616L-3.1957560820052007,75.3762517886136L-3.701172712887938,75.49701962960941z" style="fill:rgb(83,212,212)"/><path d="M-2.100253029669365,75.11447710533714L-1.9619971612018883,84.44400210535477L-1.9462167755527315,75.39109302062526zM-3.7263730872436662,83.09976770079807L-3.5512814520419966,77.20382808229445L-3.7059141761666217,76.92748055402912z" style="fill:rgb(247,158,158)"/><path d="M-2.6059435389893517,75.2353098998458L-2.1172872928897912,84.16775563373103L-2.100253029669365,75.11447710533714z" style="fill:rgb(83,212,212)"/><path d="M-1.0041562829449533,74.85256053092249L-0.8572891761889585,84.18259201194996L-0.8503921070055035,75.12932588734621z" style="fill:rgb(247,158,158)"/><path d="M-1.5223706708253495,84.02693204340204L-1.0041562829449533,74.85256053092249L-1.5101209177319985,74.97346567603485z" style="fill:rgb(83,212,212)"/><path d="M-2.6236916241869976,82.83835664920838L-2.4549226723473665,76.94232143240171L-2.6092828419962495,76.66582347857806zM0.09253469391845186,74.59050145991975L0.2480224464986803,83.92103161731393L0.24602651534177994,74.86742421345336z" style="fill:rgb(247,158,158)"/><path d="M-0.41706105262461013,83.76528713147621L0.09253469391845186,74.59050145991975L-0.4137042619162751,74.71147265250076z" style="fill:rgb(83,212,212)"/><path d="M-1.5204085699346226,82.57679551508129L-1.3579690035490897,76.6806729133971L-1.5120565389384053,76.40403177468372zM1.1898204318589234,74.32830761139815L1.3539381977135032,83.65932881829823L1.343039587333121,74.60537369236032z" style="fill:rgb(247,158,158)"/><path d="M0.6888527969756711,83.50349918806968L1.1898204318589234,74.32830761139815L0.6833069384047454,74.44933756024517z" style="fill:rgb(83,212,212)"/><path d="M-0.41652337858736127,82.31509216658749L-0.2604200685585633,76.41888240980184L-0.41423467777054446,76.14209110879547zM2.287701582108503,74.06596467414319L2.460458578579442,83.3974829403257L2.4406475925417404,74.34318105576871zM0.6879644872965299,82.05324593915525L0.8377246172910017,76.15694980601182L0.6841832533490797,75.88000822041595z" style="fill:rgb(247,158,158)"/><path d="M1.7809132472785525,74.18706028367907L2.306276455356823,83.12063193343668L2.287701582108503,74.06596467414319z" style="fill:rgb(83,212,212)"/><path d="M3.3861782543262575,73.8034793834159L3.567583977106889,83.13549386602735L3.538850907963011,74.08084618803893zM1.7930556022700417,81.79125671574386L1.9364655264357564,75.89488134767392L1.7831978204342378,75.61778299368267z" style="fill:rgb(247,158,158)"/><path d="M2.8791148890486125,73.92464022108099L3.4136796714177136,82.8584914143342L3.3861782543262575,73.8034793834159z" style="fill:rgb(83,212,212)"/><path d="M4.5216888366844525,82.59620745710814L4.637650094729715,73.81836848804495L4.4852511476858234,73.54085162331836zM2.898750217963096,81.52913128169621L3.0358030556350686,75.6326641996351L2.882809249336564,75.3554148165447z" style="fill:rgb(247,158,158)"/><path d="M3.9779125397593162,73.66208508783342L4.5216888366844525,82.59620745710814L4.4852511476858234,73.54085162331836z" style="fill:rgb(83,212,212)"/><path d="M-3.5512814520419966,77.20382808229445L-3.7263730872436662,83.09976770079807L-3.5708810483233857,83.3758623542694zM3.9830182182537994,75.09291143302259L4.158606654397899,81.5440003357512L4.135737792788311,75.37030460383818zM5.6303046647680315,82.33378686008179L5.73704590614063,73.5557556705797L5.584920925326383,73.27808079575432z" style="fill:rgb(247,158,158)"/><path d="M5.077306887347253,73.39938056700738L5.6303046647680315,82.33378686008179L5.584920925326383,73.27808079575432z" style="fill:rgb(83,212,212)"/><path d="M-2.4549226723473665,76.94232143240171L-2.6236916241869976,82.83835664920838L-2.4684751361301362,83.1145950210557zM6.685187925387993,73.01517461251441L6.892596280586836,82.34867265931472L6.837038590364761,73.2929934178027zM5.111952598086311,81.00443626704882L5.236270439242275,75.1078024441758L5.083825417238981,74.83025849825736z" style="fill:rgb(247,158,158)"/><path d="M6.177298203406569,73.13653339826202L6.739527392906806,82.07121513054766L6.685187925387993,73.01517461251441z" style="fill:rgb(83,212,212)"/><path d="M-1.3579690035490897,76.6806729133971L-1.5204085699346226,82.57679551508129L-1.3654677511113142,82.85318516587226zM-3.066101893461257,84.70527637389412L-3.1957560820052007,75.3762517886136L-3.2216684289778725,84.4291807276097zM7.849357169345992,81.8085001553537L7.937628204731827,73.03008847007494L7.786052175925515,72.752118751126zM6.219461380338352,80.7418738902365L6.337401267848393,74.84515760441457L6.1852311194854295,74.56746276043071z" style="fill:rgb(247,158,158)"/><path d="M-3.1957560820052007,75.3762517886136L-3.7311793791690415,84.54978690088616L-3.2216684289778725,84.4291807276097zM7.277886974297966,72.87354346537956L7.849357169345992,81.8085001553537L7.786052175925515,72.752118751126z" style="fill:rgb(83,212,212)"/><path d="M-0.2604200685585633,76.41888240980184L-0.41652337858736127,82.31509216658749L-0.2618585087068286,82.59163267206809zM-1.9619971612018883,84.44400210535477L-2.100253029669365,75.11447710533714L-2.1172872928897912,84.16775563373103z" style="fill:rgb(247,158,158)"/><path d="M-2.1172872928897912,84.16775563373103L-2.6059435389893517,75.2353098998458L-2.627076597059683,84.28843459901246z" style="fill:rgb(83,212,212)"/><path d="M8.95979532066812,81.54564127021669L9.038816093612775,72.76704071112755L8.887515021960612,72.48891995551804zM7.327575807419328,80.47916793032277L7.439130717368339,74.58237634687576L7.287235813230628,74.3045241030491z" style="fill:rgb(247,158,158)"/><path d="M8.379073631670936,72.61041017401276L8.95979532066812,81.54564127021669L8.887515021960612,72.48891995551804z" style="fill:rgb(83,212,212)"/><path d="M0.8377246172910017,76.15694980601182L0.6879644872965299,82.05324593915525L0.8423530838241271,82.32993742286496zM-0.8572891761889585,84.18259201194996L-1.0041562829449533,74.85256053092249L-1.0123027946175729,83.90618768860783zM8.436296376269024,80.21632518144689L8.5414593670284,74.31944580118002L8.389839931861523,74.04144192142843z" style="fill:rgb(247,158,158)"/><path d="M-1.0041562829449533,74.85256053092249L-1.5223706708253495,84.02693204340204L-1.0123027946175729,83.90618768860783z" style="fill:rgb(83,212,212)"/><path d="M1.9364655264357564,75.89488134767392L1.7930556022700417,81.79125671574386L1.9471675068620535,82.06810565699769zM0.2480224464986803,83.92103161731393L0.09253469391845186,74.59050145991975L0.09328561447698205,83.64448368175591z" style="fill:rgb(247,158,158)"/><path d="M0.09253469391845186,74.59050145991975L-0.41706105262461013,83.76528713147621L0.09328561447698205,83.64448368175591zM-4.674149914579391,75.96667050501047L8.7530040039157,78.94652158123925L8.704740275630034,72.77053595553208z" style="fill:rgb(83,212,212)"/><path d="M3.0358030556350686,75.6326641996351L2.898750217963096,81.52913128169621L3.0525851648734434,81.80612454962281zM1.3539381977135032,83.65932881829823L1.1898204318589234,74.32830761139815L1.199478475674832,83.3826291320488z" style="fill:rgb(247,158,158)"/><path d="M1.1898204318589234,74.32830761139815L0.6888527969756711,83.50349918806968L1.199478475674832,83.3826291320488z" style="fill:rgb(83,212,212)"/><path d="M4.158606654397899,81.5440003357512L3.9830182182537994,75.09291143302259L4.005048964272078,81.26685517844152zM2.460458578579442,83.3974829403257L2.287701582108503,74.06596467414319L2.306276455356823,83.12063193343668z" style="fill:rgb(247,158,158)"/><path d="M2.306276455356823,83.12063193343668L1.7809132472785525,74.18706028367907L1.7953714545475254,83.24156809586549z" style="fill:rgb(83,212,212)"/><path d="M-2.6236916241869976,82.83835664920838L-3.062152957219337,83.25529220753212L-2.4684751361301362,83.1145950210557zM-4.318059971084969,82.04917818593528L-3.9523432479002687,83.46626371833017L-3.5708810483233857,83.3758623542694z" style="fill:rgb(127,37,217)"/><path d="M5.236270439242275,75.1078024441758L5.111952598086311,81.00443626704882L5.265232686090055,81.28173289809348zM8.7530040039157,78.94652158123925L9.432239298042914,74.10697563949428L8.704740275630034,72.77053595553208zM3.567583977106889,83.13549386602735L3.3861782543262575,73.8034793834159L3.4136796714177136,82.8584914143342z" style="fill:rgb(247,158,158)"/><path d="M8.7530040039157,78.94652158123925L-4.674149914579391,75.96667050501047L-4.699979923319704,82.13983005460167zM3.4136796714177136,82.8584914143342L2.8791148890486125,73.92464022108099L2.902495173324937,82.97950064884816z" style="fill:rgb(83,212,212)"/><path d="M-1.5204085699346226,82.57679551508129L-1.9594695496358712,82.99395910783856L-1.3654677511113142,82.85318516587226z" style="fill:rgb(127,37,217)"/><path d="M6.337401267848393,74.84515760441457L6.219461380338352,80.7418738902365L6.372463539748672,81.01932211923214zM4.637650094729715,73.81836848804495L4.5216888366844525,82.59620745710814L4.675314997738214,82.87336839010095z" style="fill:rgb(247,158,158)"/><path d="M-3.8087215477465257,81.92827389922572L-3.7263730872436662,83.09976770079807L-3.2175179375882412,82.97913439827177zM-3.2143312490326643,81.78718674078863L-3.062152957219337,83.25529220753212L-2.6236916241869976,82.83835664920838z" style="fill:rgb(127,37,217)"/><path d="M4.5216888366844525,82.59620745710814L3.9779125397593162,73.66208508783342L4.010224585264562,82.717282360013z" style="fill:rgb(83,212,212)"/><path d="M-3.9523432479002687,83.46626371833017L-4.318059971084969,82.04917818593528L-4.699979923319704,82.13983005460167z" style="fill:rgb(127,37,217)"/><path d="M7.439130717368339,74.58237634687576L7.327575807419328,80.47916793032277L7.480299661735423,80.7567742546466z" style="fill:rgb(247,158,158)"/><path d="M-2.114558837094405,82.71765063368481L-1.9594695496358712,82.99395910783856L-2.109999606144011,81.52505218067348z" style="fill:rgb(127,37,217)"/><path d="M5.73704590614063,73.5557556705797L5.6303046647680315,82.33378686008179L5.783652315199007,82.61109202460412z" style="fill:rgb(247,158,158)"/><path d="M-2.704714612517536,81.66621641398126L-2.6236916241869976,82.83835664920838L-2.114558837094405,82.71765063368481zM-2.109999606144011,81.52505218067348L-1.9594695496358712,82.99395910783856L-1.5204085699346226,82.57679551508129zM-3.7263730872436662,83.09976770079807L-3.8087215477465257,81.92827389922572L-4.318059971084969,82.04917818593528zM-3.062152957219337,83.25529220753212L-3.2143312490326643,81.78718674078863L-3.8087215477465257,81.92827389922572z" style="fill:rgb(127,37,217)"/><path d="M5.6303046647680315,82.33378686008179L5.077306887347253,73.39938056700738L5.118560449576013,82.45492111971316z" style="fill:rgb(83,212,212)"/><path d="M-1.0050644403775661,81.26277438829132L-0.8561844421060394,82.7324903262109L-0.2618585087068286,82.59163267206809z" style="fill:rgb(127,37,217)"/><path d="M8.5414593670284,74.31944580118002L8.436296376269024,80.21632518144689L8.588741640441384,80.49407644409705z" style="fill:rgb(247,158,158)"/><path d="M-1.6001045284425004,81.40402266305608L-1.5204085699346226,82.57679551508129L-1.0109979282003878,82.45602416997149zM-2.6236916241869976,82.83835664920838L-2.704714612517536,81.66621641398126L-3.2143312490326643,81.78718674078863z" style="fill:rgb(127,37,217)"/><path d="M6.892596280586836,82.34867265931472L6.685187925387993,73.01517461251441L6.739527392906806,82.07121513054766z" style="fill:rgb(247,158,158)"/><path d="M6.739527392906806,82.07121513054766L6.177298203406569,73.13653339826202L6.22750302878929,82.19241626006537z" style="fill:rgb(83,212,212)"/><path d="M-2.109999606144011,81.52505218067348L-2.704714612517536,81.66621641398126L-2.114558837094405,82.71765063368481zM-3.2216684289778725,84.4291807276097L-3.5754854574732686,84.82581931599836L-3.066101893461257,84.70527637389412zM0.10047464189000295,81.00035324621525L0.24770274852616497,82.47087141466508L0.8423530838241271,82.32993742286496zM-3.5754854574732686,84.82581931599836L-3.2216684289778725,84.4291807276097L-3.7311793791690415,84.54978690088616zM0.09316533575235494,82.19426178801702L0.24770274852616497,82.47087141466508L0.10047464189000295,81.00035324621525z" style="fill:rgb(127,37,217)"/><path d="M7.937628204731827,73.03008847007494L7.849357169345992,81.8085001553537L8.002146928662276,82.08610962694078z" style="fill:rgb(247,158,158)"/><path d="M-0.49489068993257124,81.14167818677976L-0.41652337858736127,82.31509216658749L0.09316533575235494,82.19426178801702zM-1.5204085699346226,82.57679551508129L-1.6001045284425004,81.40402266305608L-2.109999606144011,81.52505218067348zM-0.8561844421060394,82.7324903262109L-1.0050644403775661,81.26277438829132L-1.6001045284425004,81.40402266305608z" style="fill:rgb(127,37,217)"/><path d="M7.849357169345992,81.8085001553537L7.277886974297966,72.87354346537956L7.337052821224119,81.92976766310916z" style="fill:rgb(83,212,212)"/><path d="M2.898750217963096,81.52913128169621L2.457285345148983,81.9472061406311L3.0525851648734434,81.80612454962281zM-2.1172872928897912,84.16775563373103L-2.4716589365861084,84.56461088392217L-1.9619971612018883,84.44400210535477zM1.2066181076633695,80.73779501016726L1.352192511212664,82.20911024079948L1.9471675068620535,82.06810565699769zM-2.4716589365861084,84.56461088392217L-2.1172872928897912,84.16775563373103L-2.627076597059683,84.28843459901246zM1.197931494082702,81.93234903510003L1.352192511212664,82.20911024079948L1.2066181076633695,80.73779501016726z" style="fill:rgb(127,37,217)"/><path d="M9.038816093612775,72.76704071112755L8.95979532066812,81.54564127021669L9.112305622737649,81.82340280946964z" style="fill:rgb(247,158,158)"/><path d="M0.6109272762279077,80.87919084554004L0.6879644872965299,82.05324593915525L1.197931494082702,81.93234903510003z" style="fill:rgb(127,37,217)"/><path d="M9.432239298042914,74.10697563949428L8.7530040039157,78.94652158123925L9.484464123994547,80.2817937745443z" style="fill:rgb(247,158,158)"/><path d="M-0.41652337858736127,82.31509216658749L-0.49489068993257124,81.14167818677976L-1.0050644403775661,81.26277438829132z" style="fill:rgb(127,37,217)"/><path d="M8.95979532066812,81.54564127021669L8.379073631670936,72.61041017401276L8.447210325751715,81.6669821316476z" style="fill:rgb(83,212,212)"/><path d="M0.10047464189000295,81.00035324621525L-0.49489068993257124,81.14167818677976L0.09316533575235494,82.19426178801702zM-1.0123027946175729,83.90618768860783L-1.3672293909460012,84.30325977817554L-0.8572891761889585,84.18259201194996zM-1.3672293909460012,84.30325977817554L-1.0123027946175729,83.90618768860783L-1.5223706708253495,84.02693204340204zM2.3033012110246,81.67029377590372L2.457285345148983,81.9472061406311L2.313366481621297,80.47508681939483zM1.7173498761383175,80.61655998275313L1.7930556022700417,81.79125671574386L2.3033012110246,81.67029377590372zM2.313366481621297,80.47508681939483L2.457285345148983,81.9472061406311L2.898750217963096,81.52913128169621zM0.6879644872965299,82.05324593915525L0.6109272762279077,80.87919084554004L0.10047464189000295,81.00035324621525zM1.2066181076633695,80.73779501016726L0.6109272762279077,80.87919084554004L1.197931494082702,81.93234903510003zM0.09328561447698205,83.64448368175591L-0.26219643422473093,84.0417658818327L0.2480224464986803,83.92103161731393zM3.42072014468004,80.21223492587977L3.562981636568238,81.68515899706739L4.158606654397899,81.5440003357512zM-0.26219643422473093,84.0417658818327L0.09328561447698205,83.64448368175591L-0.41706105262461013,83.76528713147621zM2.824377605832303,80.35378548067575L2.898750217963096,81.52913128169621L3.409274603043176,81.40809534944023zM1.7930556022700417,81.79125671574386L1.7173498761383175,80.61655998275313L1.2066181076633695,80.73779501016726zM2.313366481621297,80.47508681939483L1.7173498761383175,80.61655998275313L2.3033012110246,81.67029377590372zM1.199478475674832,83.3826291320488L0.843440428228212,83.78012907784009L1.3539381977135032,83.65932881829823zM4.528679701648273,79.94923921168059L4.669281987854304,81.42297559616269L5.265232686090055,81.28173289809348zM0.843440428228212,83.78012907784009L1.199478475674832,83.3826291320488L0.6888527969756711,83.50349918806968zM4.515852380765467,81.14575363835374L4.669281987854304,81.42297559616269L4.528679701648273,79.94923921168059zM3.932011069901331,80.09087413428766L4.005048964272078,81.26685517844152L4.515852380765467,81.14575363835374zM2.898750217963096,81.52913128169621L2.824377605832303,80.35378548067575L2.313366481621297,80.47508681939483zM3.562981636568238,81.68515899706739L3.42072014468004,80.21223492587977L2.824377605832303,80.35378548067575zM2.306276455356823,83.12063193343668L1.9496816786724842,83.51835560324403L2.460458578579442,83.3974829403257zM5.637245866054651,79.68609955872672L5.776187071630813,81.16064147841315L6.372463539748672,81.01932211923214zM1.9496816786724842,83.51835560324403L2.306276455356823,83.12063193343668L1.7953714545475254,83.24156809586549zM5.623035255599131,80.88327543231503L5.776187071630813,81.16064147841315L5.637245866054651,79.68609955872672zM5.040250191870603,79.82781147238802L5.111952598086311,81.00443626704882L5.623035255599131,80.88327543231503zM4.005048964272078,81.26685517844152L3.932011069901331,80.09087413428766L3.42072014468004,80.21223492587977zM8.436296376269024,80.21632518144689L7.991812517942694,80.63554401716294L8.588741640441384,80.49407644409705zM4.528679701648273,79.94923921168059L3.932011069901331,80.09087413428766L4.515852380765467,81.14575363835374zM3.4136796714177136,82.8584914143342L3.056527723398307,83.25643263575391L3.567583977106889,83.13549386602735zM6.746418875046463,79.42282223955277L6.883697237169868,80.89816450430975L7.480299661735423,80.7567742546466zM3.056527723398307,83.25643263575391L3.4136796714177136,82.8584914143342L2.902495173324937,82.97950064884816zM6.730823463249764,80.62064626707854L6.883697237169868,80.89816450430975L6.746418875046463,79.42282223955277zM6.149096393187221,79.56460534818665L6.219461380338352,80.7418738902365L6.730823463249764,80.62064626707854zM5.111952598086311,81.00443626704882L5.040250191870603,79.82781147238802L4.528679701648273,79.94923921168059zM5.637245866054651,79.68609955872672L5.040250191870603,79.82781147238802L5.623035255599131,80.88327543231503zM4.5216888366844525,82.59620745710814L4.16397916098804,82.99436640868745L4.675314997738214,82.87336839010095zM4.16397916098804,82.99436640868745L4.5216888366844525,82.59620745710814L4.010224585264562,82.717282360013zM7.258549281503093,79.30125511243483L7.327575807419328,80.47916793032277L7.839217150379338,80.3578740001916zM7.856199309365635,79.15939435786059L7.991812517942694,80.63554401716294L8.436296376269024,80.21632518144689zM6.219461380338352,80.7418738902365L6.149096393187221,79.56460534818665L5.637245866054651,79.68609955872672zM6.746418875046463,79.42282223955277L6.149096393187221,79.56460534818665L6.730823463249764,80.62064626707854zM5.6303046647680315,82.33378686008179L5.272036704295991,82.73215680447815L5.783652315199007,82.61109202460412zM8.7530040039157,78.94652158123925L9.100534274214587,80.37277989923882L9.484464123994547,80.2817937745443zM5.272036704295991,82.73215680447815L5.6303046647680315,82.33378686008179L5.118560449576013,82.45492111971316zM8.368610220264095,79.03776064674351L8.436296376269024,80.21632518144689L8.94821764061707,80.09495797797666zM7.327575807419328,80.47916793032277L7.258549281503093,79.30125511243483L6.746418875046463,79.42282223955277zM7.991812517942694,80.63554401716294L7.856199309365635,79.15939435786059L7.258549281503093,79.30125511243483zM6.739527392906806,82.07121513054766L6.380700634766076,82.46980370543075L6.892596280586836,82.34867265931472zM6.380700634766076,82.46980370543075L6.739527392906806,82.07121513054766L6.22750302878929,82.19241626006537zM8.436296376269024,80.21632518144689L8.368610220264095,79.03776064674351L7.856199309365635,79.15939435786059zM9.100534274214587,80.37277989923882L8.7530040039157,78.94652158123925L8.368610220264095,79.03776064674351zM7.849357169345992,81.8085001553537L7.489971400558052,82.2073133653525L8.002146928662276,82.08610962694078zM7.489971400558052,82.2073133653525L7.849357169345992,81.8085001553537L7.337052821224119,81.92976766310916zM8.95979532066812,81.54564127021669L8.599849592229948,81.9446729265169L9.112305622737649,81.82340280946964zM8.599849592229948,81.9446729265169L8.95979532066812,81.54564127021669L8.447210325751715,81.6669821316476z" style="fill:rgb(127,37,217)"/><path d="M64.71110677146297,112.48206921408813L66.72958720932402,129.97246342734599L65.8622593890692,114.75106366527191z" style="fill:rgb(247,158,158)"/><path d="M46.47508312677439,116.60304559917367L65.56538914150931,127.71127264755062L64.71110677146297,112.48206921408813zM65.56538914150931,127.71127264755062L46.47508312677439,116.60304559917367L47.085865759571284,131.81797509863367z" style="fill:rgb(83,212,212)"/><path d="M66.72958720932402,129.97246342734599L64.71110677146297,112.48206921408813L65.56538914150931,127.71127264755062z" style="fill:rgb(247,158,158)"/><path d="M48.29036985492362,134.05891294826625L65.56538914150931,127.71127264755062L47.085865759571284,131.81797509863367zM65.56538914150931,127.71127264755062L48.29036985492362,134.05891294826625L66.72958720932402,129.97246342734599z" style="fill:rgb(127,37,217)"/></svg>
